<svg width="13" height="16" viewBox="0 0 13 16" fill="none" xmlns="http://www.w3.org/2000/svg">
<path d="M4.38079 14.2446L4.3813 14.2453C4.62665 14.5894 4.94684 14.8679 5.31481 15.0592L5.3149 15.0593C5.68281 15.2507 6.0888 15.35 6.49999 15.35C6.91118 15.35 7.31716 15.2507 7.68508 15.0593L7.68515 15.0592C8.05314 14.8679 8.37335 14.5894 8.61864 14.2453L8.61916 14.2446C9.88492 12.4745 10.8255 10.9435 11.4473 9.65713C12.0748 8.35888 12.3498 7.36558 12.35 6.6541L4.38079 14.2446ZM4.38079 14.2446C3.11506 12.4745 2.17447 10.9435 1.55271 9.65713C0.925092 8.35865 0.650101 7.36523 0.65 6.65372C0.651968 5.05711 1.27259 3.52945 2.37107 2.40505C3.46897 1.28125 4.95414 0.65194 6.49999 0.65M4.38079 14.2446L6.49999 0.65M3.49079 7.90296L3.49078 7.90295C3.24633 7.2988 3.18259 6.63484 3.30703 5.99443M3.49079 7.90296L8.80691 8.97847C9.41569 8.35534 9.75491 7.51339 9.75491 6.63866C9.75491 5.98609 9.56601 5.34692 9.21023 4.8019C8.85442 4.2567 8.34706 3.82948 7.75062 3.57656L7.75061 3.57656C7.15397 3.32357 6.49654 3.25712 5.8621 3.38631M3.49079 7.90296C3.7353 8.50724 4.15036 9.02617 4.68579 9.39241L4.68582 9.39244M3.49079 7.90296L4.68582 9.39244M3.30703 5.99443L3.9451 6.11842M3.30703 5.99443L3.9451 6.11842M3.30703 5.99443C3.43148 5.35396 3.73903 4.76362 4.19304 4.29884L4.19305 4.29883C4.64723 3.8339 5.22776 3.51547 5.8621 3.38631M3.9451 6.11842C4.04561 5.60114 4.29371 5.12599 4.65801 4.75304L6.49999 9.30534C5.98478 9.30534 5.48114 9.14889 5.05276 8.85591C4.62438 8.5629 4.2905 8.14642 4.09333 7.65915C3.89617 7.17188 3.84458 6.6357 3.9451 6.11842ZM5.8621 3.38631L5.99179 4.02324L5.8621 3.38631ZM4.68582 9.39244C5.2214 9.75873 5.85275 9.95533 6.49999 9.95533M4.68582 9.39244L6.49999 9.95533M6.49999 0.65C8.04584 0.65194 9.531 1.28125 10.6289 2.40506C11.7274 3.52953 12.3481 5.05732 12.35 6.65402L6.49999 0.65ZM6.49999 9.95533C7.36821 9.95533 8.19772 9.6021 8.80686 8.97852L6.49999 9.95533Z" stroke="#668DBB" stroke-width="1.3"/>
</svg>
