<svg width="16" height="16" viewBox="0 0 16 16" fill="none" xmlns="http://www.w3.org/2000/svg">
<path d="M11.8224 15.9974C6.40024 16.1806 -3.3677 6.5052 1.16751 1.25933L1.93439 0.593443C2.32257 0.218725 2.8429 0.0117085 3.38279 0.0171918C3.92267 0.0226752 4.43868 0.240217 4.81915 0.622743C4.83972 0.643654 4.85888 0.665899 4.8765 0.689331L6.07682 2.24684C6.4416 2.63228 6.64428 3.14285 6.64304 3.67317C6.6418 4.2035 6.43673 4.71311 6.07015 5.09685L5.29795 6.06638C5.72548 7.10321 6.35384 8.04553 7.14699 8.83926C7.94014 9.63298 8.88245 10.2625 9.91985 10.6916L10.8961 9.91588C11.2854 9.55886 11.7945 9.36043 12.323 9.35969C12.8516 9.35895 13.3613 9.55596 13.7515 9.91189L15.312 11.1105C15.3353 11.128 15.3575 11.1469 15.3786 11.1671C15.7635 11.5549 15.9794 12.0788 15.9794 12.6247C15.9794 13.1707 15.7635 13.6945 15.3786 14.0823L14.7711 14.7815C14.3858 15.1705 13.9264 15.4785 13.4199 15.6873C12.9135 15.8962 12.3703 16.0016 11.8224 15.9974ZM3.35943 1.34789C3.2636 1.34782 3.16869 1.3666 3.08013 1.40316C2.99157 1.43972 2.91109 1.49335 2.84329 1.56098L2.07576 2.22687C-1.68925 6.74692 9.83182 17.6109 13.7949 13.8719L14.403 13.1721C14.4753 13.1078 14.5342 13.0299 14.5762 12.9429C14.6182 12.8558 14.6425 12.7613 14.6478 12.6648C14.6531 12.5683 14.6392 12.4717 14.6069 12.3806C14.5746 12.2895 14.5246 12.2057 14.4597 12.134L12.908 10.944C12.8842 10.9265 12.8619 10.9072 12.8413 10.8861C12.7022 10.7537 12.5173 10.6798 12.3252 10.6798C12.133 10.6798 11.9482 10.7537 11.809 10.8861C11.7913 10.904 11.7726 10.9209 11.753 10.9367L10.4473 11.9755C10.3567 12.0475 10.2488 12.0947 10.1343 12.1125C10.0199 12.1302 9.90273 12.1179 9.79448 12.0767C8.45021 11.5766 7.22927 10.7939 6.21439 9.78149C5.19952 8.7691 4.4144 7.55071 3.91225 6.20888C3.86779 6.09925 3.85338 5.97978 3.87049 5.86275C3.8876 5.74572 3.93562 5.63535 4.00961 5.54299L5.04588 4.24051C5.0613 4.22078 5.078 4.2021 5.0959 4.18458C5.23211 4.0474 5.30854 3.86203 5.30854 3.66885C5.30854 3.47566 5.23211 3.2903 5.0959 3.15312C5.07511 3.13241 5.05594 3.11015 5.03855 3.08653L3.84956 1.539C3.71522 1.41779 3.5405 1.35085 3.35943 1.35122V1.34789ZM15.0245 8.39033C18.3521 3.49938 12.4905 -2.34778 7.5979 0.974332C7.52411 1.02352 7.4609 1.08692 7.41196 1.16081C7.36303 1.2347 7.32935 1.3176 7.3129 1.40465C7.29645 1.49171 7.29755 1.58116 7.31616 1.66778C7.33477 1.7544 7.37049 1.83644 7.42125 1.9091C7.47201 1.98176 7.53677 2.04357 7.61175 2.09092C7.68673 2.13827 7.77042 2.1702 7.85791 2.18485C7.94541 2.1995 8.03495 2.19657 8.1213 2.17623C8.20764 2.15588 8.28905 2.11854 8.36077 2.06639C12.0111 -0.436686 16.4363 3.98681 13.9309 7.62922C13.8776 7.70077 13.8391 7.78229 13.8179 7.86895C13.7967 7.95561 13.7932 8.04564 13.8075 8.13369C13.8218 8.22175 13.8537 8.30603 13.9013 8.38154C13.9489 8.45704 14.0112 8.52223 14.0845 8.57324C14.1577 8.62425 14.2406 8.66003 14.328 8.67846C14.4154 8.6969 14.5056 8.6976 14.5933 8.68054C14.681 8.66348 14.7643 8.629 14.8384 8.57915C14.9125 8.52929 14.9758 8.46508 15.0245 8.39033ZM12.4519 7.14845C12.5769 7.02358 12.6471 6.85423 12.6471 6.67767C12.6471 6.5011 12.5769 6.33175 12.4519 6.20688L11.3142 5.07021V3.34556C11.3142 3.16896 11.244 2.99958 11.1189 2.87471C10.9938 2.74983 10.8242 2.67967 10.6474 2.67967C10.4705 2.67967 10.3009 2.74983 10.1758 2.87471C10.0508 2.99958 9.98053 3.16896 9.98053 3.34556V5.34323C9.98057 5.51981 10.0509 5.68916 10.1759 5.81401L11.5096 7.14578C11.6347 7.27062 11.8042 7.34075 11.9811 7.34075C12.1579 7.34075 12.3275 7.27062 12.4525 7.14578L12.4519 7.14845Z" fill="#668DBB"/>
</svg>
