<svg width="226" height="48" viewBox="0 0 226 48" fill="none" xmlns="http://www.w3.org/2000/svg">
<path d="M55.3019 40.6947L32.1132 2.34068C30.2355 -0.786076 25.7091 -0.773394 23.8406 2.33774L0.697415 40.6961C0.696948 40.6971 0.696247 40.698 0.69578 40.6989C-1.23435 43.913 1.07915 48 4.83278 48H51.1674C54.9155 47.9998 57.2385 43.9198 55.3019 40.6947ZM51.1674 44.7218H4.83278C3.63345 44.7218 2.89238 43.4171 3.50722 42.3885L26.6523 4.0273C27.2498 3.03192 28.6969 3.02362 29.3022 4.03154L52.4909 42.3855C53.1085 43.4136 52.3689 44.7218 51.1674 44.7218Z" fill="#FF2B2B"/>
<path d="M31.9717 24.6211C31.0277 24.6211 30.2598 25.3886 30.2598 26.3319C30.2598 27.2752 31.0277 28.0425 31.9717 28.0425C32.9158 28.0425 33.6839 27.2752 33.6839 26.3319C33.6839 25.3886 32.9158 24.6211 31.9717 24.6211Z" fill="#00418D"/>
<path d="M33.1035 19.4316V22.5166C33.9827 22.7782 34.7354 23.3354 35.2455 24.073L38.1818 23.1195C37.1831 21.1968 35.3164 19.7937 33.1035 19.4316Z" fill="#00418D"/>
<path d="M38.8853 25.2793L35.9479 26.2328C35.9488 26.2662 35.9505 26.2993 35.9505 26.3329C35.9505 27.2409 35.6436 28.0784 35.1289 28.7487L36.9424 31.2428C38.1919 29.9797 38.9647 28.2449 38.9647 26.3329C38.9647 25.9748 38.9376 25.6229 38.8853 25.2793Z" fill="#00418D"/>
<path d="M31.9708 11.4141H18.175C17.5487 11.4141 17.0412 11.9214 17.0412 12.5471C17.0412 13.1728 17.5487 13.6801 18.175 13.6801H24.0694C22.8258 14.4583 21.7046 15.414 20.7416 16.512H13.0344C12.4081 16.512 11.9004 17.0194 11.9004 17.6451C11.9004 18.2708 12.4081 18.7781 13.0344 18.7781H19.1013C17.793 20.9949 17.041 23.5769 17.041 26.3315C17.041 29.5365 18.0581 32.5086 19.7864 34.943H16.5689C15.9427 34.943 15.4352 35.4501 15.4352 36.0759C15.4352 36.7016 15.9427 37.2089 16.5689 37.2089H21.7657C22.4727 37.8715 23.2441 38.4663 24.0694 38.9827H13.1513C12.525 38.9827 12.0173 39.49 12.0173 40.1158C12.0173 40.7415 12.525 41.2488 13.1513 41.2488H31.9708C40.203 41.2488 46.9004 34.5567 46.9004 26.3315C46.9004 18.106 40.203 11.4141 31.9708 11.4141ZM37.4791 33.7668C37.4581 33.7846 37.4376 33.8023 37.4149 33.8186C37.3897 33.8368 37.3638 33.854 37.3377 33.8701C35.8224 34.95 33.9695 35.586 31.9708 35.586C29.9718 35.586 28.1192 34.95 26.6039 33.8701C26.5778 33.854 26.5519 33.8368 26.5264 33.8186C26.504 33.8023 26.4835 33.7843 26.4625 33.7668C24.1863 32.0791 22.7084 29.3747 22.7084 26.3315C22.7084 21.2285 26.8636 17.0768 31.9708 17.0768C37.078 17.0768 41.233 21.2285 41.233 26.3315C41.233 29.3747 39.755 32.0791 37.4791 33.7668Z" fill="#00418D"/>
<path d="M25.7578 23.1195L28.6941 24.0728C29.2044 23.3354 29.9569 22.7782 30.8361 22.5163V19.4316C28.6234 19.7937 26.7565 21.1968 25.7578 23.1195Z" fill="#00418D"/>
<path d="M33.2937 30.0801C32.8789 30.2267 32.4334 30.3074 31.9689 30.3074C31.5045 30.3074 31.0589 30.2267 30.6442 30.0801L28.8301 32.5745C29.7746 33.0503 30.8409 33.3189 31.9689 33.3189C33.0968 33.3189 34.1631 33.0505 35.1077 32.5745L33.2937 30.0801Z" fill="#00418D"/>
<path d="M27.991 26.3329C27.991 26.2993 27.9926 26.2662 27.9933 26.2328L25.0559 25.2793C25.0039 25.6229 24.9766 25.9748 24.9766 26.3329C24.9766 28.2449 25.7494 29.9799 26.9989 31.2428L28.8126 28.7487C28.2978 28.0786 27.991 27.2409 27.991 26.3329Z" fill="#00418D"/>
<path d="M39.8979 26.3292C39.8979 30.7071 36.3461 34.256 31.9646 34.256C27.5831 34.256 24.0312 30.7071 24.0312 26.3292C24.0312 21.9512 27.5831 18.4023 31.9646 18.4023C36.3461 18.4023 39.8979 21.9512 39.8979 26.3292Z" fill="white"/>
<path fill-rule="evenodd" clip-rule="evenodd" d="M31.9646 32.3908C35.315 32.3908 38.0313 29.6768 38.0313 26.3292C38.0313 22.9815 35.315 20.2675 31.9646 20.2675C28.6142 20.2675 25.8979 22.9815 25.8979 26.3292C25.8979 29.6768 28.6142 32.3908 31.9646 32.3908ZM31.9646 34.256C36.3461 34.256 39.8979 30.7071 39.8979 26.3292C39.8979 21.9512 36.3461 18.4023 31.9646 18.4023C27.5831 18.4023 24.0312 21.9512 24.0312 26.3292C24.0312 30.7071 27.5831 34.256 31.9646 34.256Z" fill="#FF2A2A"/>
<path d="M30.0977 24.2695H31.2844L32.2632 26.4004L33.0426 24.2695H34.2349L32.6216 28.0835C32.5542 28.242 32.4821 28.3759 32.4056 28.4852C32.329 28.5962 32.245 28.6855 32.154 28.7528C32.0628 28.8221 31.9634 28.8713 31.8558 28.9004C31.7501 28.9314 31.6325 28.9468 31.5033 28.9468C31.4139 28.9468 31.3264 28.9396 31.2408 28.9249C31.1549 28.9123 31.0739 28.8951 30.9974 28.8731C30.9209 28.8512 30.8506 28.8275 30.7867 28.802C30.723 28.7785 30.6684 28.7556 30.6227 28.7337V27.9334C30.7321 27.9898 30.8441 28.0334 30.9591 28.0644C31.0739 28.0954 31.1859 28.1108 31.2954 28.1108C31.412 28.1108 31.5058 28.0835 31.577 28.0289C31.6482 27.9742 31.6983 27.8767 31.7275 27.7366L30.0977 24.2695Z" fill="#56567B"/>
<path d="M73.0916 28.4146C72.8463 28.5439 72.5913 28.6637 72.3268 28.7737C72.0622 28.8791 71.7808 28.9701 71.4826 29.0467C71.1891 29.1233 70.8716 29.183 70.5301 29.2262C70.1934 29.2694 69.8302 29.2909 69.4406 29.2909C68.8104 29.2909 68.2379 29.2167 67.7232 29.0681C67.2085 28.9198 66.7491 28.7188 66.3451 28.4651C65.9458 28.2111 65.597 27.917 65.2988 27.5818C65.0054 27.2466 64.7624 26.8948 64.57 26.5259C64.3776 26.1527 64.2333 25.7743 64.1371 25.3913C64.0457 25.0083 64 24.6421 64 24.2925C64 23.7851 64.0625 23.3016 64.1876 22.842C64.3127 22.3775 64.4907 21.9516 64.7216 21.5637C64.9525 21.1712 65.2315 20.817 65.5586 20.5008C65.8905 20.1849 66.2609 19.9168 66.6698 19.6965C67.0786 19.4716 67.5236 19.299 68.0046 19.1796C68.4857 19.0597 68.9932 19 69.5271 19C69.7869 19 70.049 19.0169 70.3136 19.0503C70.5782 19.0791 70.85 19.1293 71.129 19.201C71.4128 19.2681 71.7062 19.3542 72.0093 19.4596C72.3171 19.5601 72.6418 19.6821 72.9834 19.8258V21.3697C72.6707 21.188 72.3677 21.0324 72.0742 20.9031C71.7856 20.7689 71.4994 20.6589 71.2156 20.5728C70.9366 20.4867 70.6552 20.4242 70.3713 20.3859C70.0923 20.343 69.8061 20.3212 69.5127 20.3212C68.9354 20.3212 68.4015 20.4196 67.9108 20.6157C67.4202 20.8072 66.9944 21.0731 66.6337 21.4129C66.2777 21.7527 65.9987 22.1575 65.7967 22.6266C65.5946 23.0957 65.4936 23.608 65.4936 24.1635C65.4936 24.7236 65.5922 25.2381 65.7895 25.7075C65.9867 26.1717 66.2633 26.5715 66.6193 26.9067C66.98 27.2416 67.4106 27.5027 67.9108 27.6893C68.4111 27.8762 68.9643 27.9694 69.5704 27.9694C70.1477 27.9694 70.7345 27.8738 71.331 27.6823C71.9275 27.4908 72.5144 27.2083 73.0916 26.8347V28.4146ZM83.6982 19.1293V29.1616H82.2551V20.422H76.6053V29.1616H75.1622V19.1293H83.6982ZM91.9525 19.1293V20.422H87.6809V23.4524H91.8082V24.7521H87.6809V27.8689H92.0896V29.1616H86.2378V19.1293H91.9525ZM102.458 19.1293V27.8689H103.793V31H102.343V29.1616H93.9221V19.1293H95.3652V27.8689H101.015V19.1293H102.458ZM108.151 27.1436L107.321 29.1616H104.233L108.656 19.2084H111.99L116.398 29.1616H113.31L112.495 27.1436H108.151ZM111.802 25.413L110.337 21.7791L108.858 25.413H111.802ZM122.856 19.2084C123.501 19.2084 124.049 19.2706 124.501 19.395C124.958 19.5148 125.331 19.6799 125.619 19.8904C125.908 20.1012 126.12 20.3476 126.254 20.6301C126.389 20.9126 126.456 21.2165 126.456 21.5422C126.456 21.8437 126.411 22.1192 126.319 22.368C126.228 22.6122 126.113 22.8276 125.973 23.0145C125.834 23.1962 125.682 23.3494 125.518 23.4741C125.355 23.5936 125.201 23.6797 125.057 23.7324C125.369 23.8571 125.653 23.9981 125.908 24.1562C126.168 24.3143 126.389 24.496 126.572 24.7019C126.755 24.9078 126.897 25.1449 126.998 25.413C127.104 25.6811 127.157 25.9897 127.157 26.3393C127.157 26.7557 127.082 27.1387 126.933 27.4883C126.788 27.833 126.572 28.1299 126.283 28.3787C126 28.6278 125.648 28.8218 125.23 28.9606C124.816 29.0945 124.34 29.1616 123.801 29.1616H118.022V19.2084H122.856ZM121.038 20.8816V23.2658H121.687C122 23.2658 122.276 23.2514 122.517 23.2226C122.762 23.1938 122.966 23.1389 123.13 23.0574C123.298 22.9713 123.424 22.8515 123.505 22.6983C123.592 22.5405 123.635 22.3321 123.635 22.0735C123.635 21.8149 123.59 21.6093 123.498 21.4561C123.407 21.298 123.277 21.1782 123.108 21.097C122.94 21.0106 122.733 20.9533 122.488 20.9245C122.247 20.8957 121.976 20.8816 121.673 20.8816H121.038ZM121.038 24.939V27.4883H122.264C122.894 27.4883 123.361 27.3854 123.664 27.1795C123.972 26.9735 124.126 26.6527 124.126 26.2173C124.126 25.3649 123.505 24.939 122.264 24.939H121.038ZM138.975 19.2084V21.4129H135.31V29.1616H132.301V21.4129H128.635V19.2084H138.975ZM151.739 24.1776C151.739 24.8624 151.622 25.5135 151.386 26.1309C151.15 26.7486 150.794 27.2919 150.318 27.7613C149.846 28.2304 149.255 28.6039 148.543 28.8815C147.836 29.1545 147.008 29.2909 146.061 29.2909C145.411 29.2909 144.82 29.2238 144.285 29.0899C143.752 28.9557 143.273 28.7715 142.85 28.5368C142.431 28.3021 142.068 28.0245 141.76 27.7037C141.452 27.3783 141.195 27.0262 140.988 26.6481C140.786 26.2697 140.635 25.8726 140.534 25.4559C140.437 25.0346 140.389 24.6087 140.389 24.1776C140.389 23.5314 140.5 22.9042 140.721 22.2963C140.947 21.6835 141.291 21.1375 141.753 20.6589C142.219 20.1803 142.809 19.7973 143.521 19.5099C144.237 19.2179 145.084 19.0717 146.061 19.0717C147.013 19.0717 147.845 19.213 148.557 19.4955C149.269 19.7731 149.861 20.1466 150.332 20.6157C150.804 21.0851 151.155 21.6283 151.386 22.246C151.622 22.8588 151.739 23.5026 151.739 24.1776ZM143.463 24.1776C143.463 24.5511 143.521 24.8958 143.636 25.2117C143.757 25.523 143.927 25.7936 144.148 26.0234C144.37 26.2483 144.642 26.4229 144.964 26.5476C145.286 26.672 145.652 26.7342 146.061 26.7342C146.479 26.7342 146.85 26.672 147.172 26.5476C147.499 26.4183 147.771 26.2412 147.987 26.016C148.209 25.7862 148.377 25.516 148.492 25.2047C148.608 24.8934 148.665 24.5511 148.665 24.1776C148.665 23.809 148.608 23.4692 148.492 23.1579C148.377 22.8469 148.209 22.5788 147.987 22.3536C147.771 22.1238 147.499 21.9467 147.172 21.8223C146.85 21.693 146.479 21.6283 146.061 21.6283C145.652 21.6283 145.286 21.6905 144.964 21.8149C144.642 21.9396 144.37 22.1143 144.148 22.3392C143.927 22.5644 143.757 22.8349 143.636 23.1509C143.521 23.4619 143.463 23.8044 143.463 24.1776ZM153.918 29.1616V19.2084H156.934V26.7486H159.236V19.2084H162.166V26.7486H164.467V19.2084H167.483V29.1616H153.918ZM178.862 21.5566C178.66 21.5566 178.489 21.5686 178.35 21.5925C178.21 21.6115 178.083 21.6547 177.967 21.7218C177.857 21.7889 177.746 21.8894 177.635 22.0233C177.53 22.1526 177.407 22.3297 177.267 22.5549C177.118 22.7942 176.981 22.9976 176.856 23.1653C176.731 23.328 176.601 23.4668 176.467 23.5817C176.337 23.6917 176.195 23.7805 176.041 23.8473C175.892 23.9144 175.718 23.9696 175.521 24.0125C175.723 24.0318 175.918 24.0796 176.106 24.1562C176.293 24.2279 176.481 24.3452 176.668 24.5079C176.861 24.666 177.06 24.8768 177.267 25.14C177.474 25.4032 177.696 25.7335 177.931 26.1309L179.706 29.1616H176.322L174.742 26.3681C174.626 26.1622 174.523 25.9897 174.432 25.8509C174.345 25.7121 174.251 25.5996 174.15 25.5135C174.049 25.4271 173.931 25.3674 173.797 25.334C173.667 25.2957 173.503 25.2764 173.306 25.2764V29.1616H170.29V19.2084H173.306V22.8634C173.455 22.8634 173.585 22.8444 173.696 22.8061C173.806 22.7629 173.917 22.6863 174.028 22.5763C174.143 22.4614 174.268 22.3033 174.403 22.1023C174.542 21.9013 174.713 21.6403 174.915 21.3195C175.122 20.9941 175.31 20.7165 175.478 20.4867C175.646 20.2569 175.812 20.0629 175.976 19.9048C176.144 19.7467 176.315 19.6223 176.488 19.5313C176.666 19.4403 176.866 19.3711 177.087 19.3233C177.313 19.2751 177.568 19.2442 177.852 19.2298C178.14 19.2154 178.477 19.2084 178.862 19.2084V21.5566ZM192.037 24.1776C192.037 24.8624 191.919 25.5135 191.684 26.1309C191.448 26.7486 191.092 27.2919 190.616 27.7613C190.145 28.2304 189.553 28.6039 188.841 28.8815C188.134 29.1545 187.306 29.2909 186.359 29.2909C185.709 29.2909 185.117 29.2238 184.584 29.0899C184.05 28.9557 183.571 28.7715 183.148 28.5368C182.729 28.3021 182.366 28.0245 182.058 27.7037C181.75 27.3783 181.493 27.0262 181.286 26.6481C181.084 26.2697 180.933 25.8726 180.832 25.4559C180.735 25.0346 180.687 24.6087 180.687 24.1776C180.687 23.5314 180.798 22.9042 181.019 22.2963C181.245 21.6835 181.589 21.1375 182.051 20.6589C182.518 20.1803 183.107 19.7973 183.819 19.5099C184.536 19.2179 185.382 19.0717 186.359 19.0717C187.311 19.0717 188.143 19.213 188.855 19.4955C189.567 19.7731 190.159 20.1466 190.63 20.6157C191.102 21.0851 191.453 21.6283 191.684 22.246C191.919 22.8588 192.037 23.5026 192.037 24.1776ZM183.761 24.1776C183.761 24.5511 183.819 24.8958 183.934 25.2117C184.054 25.523 184.225 25.7936 184.447 26.0234C184.668 26.2483 184.94 26.4229 185.262 26.5476C185.584 26.672 185.95 26.7342 186.359 26.7342C186.777 26.7342 187.148 26.672 187.47 26.5476C187.797 26.4183 188.069 26.2412 188.285 26.016C188.506 25.7862 188.675 25.516 188.79 25.2047C188.906 24.8934 188.964 24.5511 188.964 24.1776C188.964 23.809 188.906 23.4692 188.79 23.1579C188.675 22.8469 188.506 22.5788 188.285 22.3536C188.069 22.1238 187.797 21.9467 187.47 21.8223C187.148 21.693 186.777 21.6283 186.359 21.6283C185.95 21.6283 185.584 21.6905 185.262 21.8149C184.94 21.9396 184.668 22.1143 184.447 22.3392C184.225 22.5644 184.054 22.8349 183.934 23.1509C183.819 23.4619 183.761 23.8044 183.761 24.1776ZM200.869 29.1616L198.574 23.4095L196.229 29.1616H193.076L197.586 19.0717H199.585L204 29.1616H200.869ZM208.402 27.1436L207.572 29.1616H204.484L208.907 19.2084H212.24L216.649 29.1616H213.561L212.746 27.1436H208.402ZM212.053 25.413L210.588 21.7791L209.109 25.413H212.053ZM226 25.0754H222.84V28.2209H221.05V25.0754H217.89V23.2946H221.05V20.149H222.84V23.2946H226V25.0754Z" fill="#00418D"/>
</svg>
