<svg width="10" height="6" viewBox="0 0 10 6" fill="none" xmlns="http://www.w3.org/2000/svg">
<path d="M5.47256 3.93335C5.41059 3.99584 5.33685 4.04543 5.25562 4.07928C5.17438 4.11312 5.08724 4.13055 4.99923 4.13055C4.91122 4.13055 4.82409 4.11312 4.74285 4.07928C4.66161 4.04543 4.58787 3.99584 4.5259 3.93335L1.47256 0.87336C1.41059 0.810874 1.33685 0.761278 1.25561 0.727432C1.17437 0.693586 1.08723 0.676161 0.999227 0.676161C0.911219 0.676161 0.824082 0.693586 0.742842 0.727432C0.661603 0.761278 0.587868 0.810874 0.525893 0.87336C0.401726 0.998268 0.332031 1.16723 0.332031 1.34336C0.332031 1.51948 0.401726 1.68845 0.525893 1.81336L3.5859 4.87335C3.9609 5.24788 4.46923 5.45825 4.99923 5.45825C5.52923 5.45825 6.03756 5.24788 6.41257 4.87335L9.47257 1.81336C9.59573 1.68918 9.66516 1.52158 9.6659 1.34669C9.66641 1.25895 9.64959 1.17198 9.61642 1.09075C9.58324 1.00953 9.53436 0.935653 9.47257 0.87336C9.41059 0.810874 9.33686 0.761278 9.25562 0.727432C9.17438 0.693586 9.08724 0.676161 8.99923 0.676161C8.91123 0.676161 8.82409 0.693586 8.74285 0.727432C8.66161 0.761278 8.58788 0.810874 8.5259 0.87336L5.47256 3.93335Z" fill="#00418D"/>
</svg>
