<svg width="10" height="6" viewBox="0 0 10 6" fill="none" xmlns="http://www.w3.org/2000/svg">
<path d="M5.47256 3.93311C5.41059 3.99559 5.33685 4.04519 5.25562 4.07903C5.17438 4.11288 5.08724 4.1303 4.99923 4.1303C4.91122 4.1303 4.82409 4.11288 4.74285 4.07903C4.66161 4.04519 4.58787 3.99559 4.5259 3.93311L1.47256 0.873116C1.41059 0.81063 1.33685 0.761034 1.25561 0.727188C1.17437 0.693342 1.08723 0.675917 0.999227 0.675917C0.911219 0.675917 0.824082 0.693342 0.742842 0.727188C0.661603 0.761034 0.587868 0.81063 0.525893 0.873116C0.401726 0.998024 0.332031 1.16699 0.332031 1.34311C0.332031 1.51924 0.401726 1.6882 0.525893 1.81311L3.5859 4.8731C3.9609 5.24764 4.46923 5.45801 4.99923 5.45801C5.52923 5.45801 6.03756 5.24764 6.41257 4.8731L9.47257 1.81311C9.59573 1.68894 9.66516 1.52134 9.6659 1.34645C9.66641 1.25871 9.64959 1.17173 9.61642 1.09051C9.58324 1.00928 9.53436 0.935409 9.47257 0.873116C9.41059 0.81063 9.33686 0.761034 9.25562 0.727188C9.17438 0.693342 9.08724 0.675917 8.99923 0.675917C8.91123 0.675917 8.82409 0.693342 8.74285 0.727188C8.66161 0.761034 8.58788 0.81063 8.5259 0.873116L5.47256 3.93311Z" fill="#00418D"/>
</svg>
