<svg width="6" height="10" viewBox="0 0 6 10" fill="none" xmlns="http://www.w3.org/2000/svg">
<path d="M3.93408 4.5267C3.99657 4.58868 4.04616 4.66241 4.08001 4.74365C4.11386 4.82489 4.13128 4.91203 4.13128 5.00004C4.13128 5.08805 4.11386 5.17518 4.08001 5.25642C4.04616 5.33766 3.99657 5.4114 3.93408 5.47337L0.874092 8.52671C0.811606 8.58868 0.76201 8.66242 0.728164 8.74366C0.694319 8.8249 0.676894 8.91203 0.676894 9.00004C0.676894 9.08805 0.694319 9.17519 0.728164 9.25643C0.76201 9.33767 0.811606 9.4114 0.874092 9.47337C0.999 9.59754 1.16797 9.66724 1.34409 9.66724C1.52021 9.66724 1.68918 9.59754 1.81409 9.47337L4.87408 6.41337C5.24861 6.03837 5.45898 5.53004 5.45898 5.00004C5.45898 4.47003 5.24861 3.9617 4.87408 3.5867L1.81409 0.5267C1.68992 0.403537 1.52232 0.334103 1.34742 0.333366C1.25969 0.332859 1.17271 0.349675 1.09149 0.382852C1.01026 0.416028 0.936385 0.464912 0.874092 0.5267C0.811606 0.588675 0.76201 0.662409 0.728164 0.743649C0.694319 0.824888 0.676894 0.912025 0.676894 1.00003C0.676894 1.08804 0.694319 1.17518 0.728164 1.25642C0.76201 1.33766 0.811606 1.41139 0.874092 1.47337L3.93408 4.5267Z" fill="#00418D"/>
</svg>
