<svg width="10" height="6" viewBox="0 0 10 6" fill="none" xmlns="http://www.w3.org/2000/svg">
<path d="M4.52744 2.06689C4.58941 2.00441 4.66315 1.95481 4.74438 1.92097C4.82562 1.88712 4.91276 1.8697 5.00077 1.8697C5.08878 1.8697 5.17591 1.88712 5.25715 1.92097C5.33839 1.95481 5.41213 2.00441 5.4741 2.06689L8.52744 5.12688C8.58941 5.18937 8.66315 5.23897 8.74439 5.27281C8.82563 5.30666 8.91277 5.32408 9.00077 5.32408C9.08878 5.32408 9.17592 5.30666 9.25716 5.27281C9.3384 5.23897 9.41213 5.18937 9.47411 5.12688C9.59827 5.00198 9.66797 4.83301 9.66797 4.65689C9.66797 4.48076 9.59827 4.3118 9.47411 4.18689L6.4141 1.1269C6.0391 0.752363 5.53077 0.541992 5.00077 0.541992C4.47077 0.541992 3.96244 0.752363 3.58743 1.1269L0.527432 4.18689C0.404269 4.31106 0.334835 4.47866 0.334099 4.65355C0.333591 4.74129 0.350408 4.82827 0.383584 4.90949C0.41676 4.99072 0.465645 5.06459 0.527432 5.12688C0.589408 5.18937 0.663141 5.23897 0.744381 5.27281C0.825621 5.30666 0.912758 5.32408 1.00077 5.32408C1.08877 5.32408 1.17591 5.30666 1.25715 5.27281C1.33839 5.23897 1.41212 5.18937 1.4741 5.12688L4.52744 2.06689Z" fill="#00418D"/>
</svg>
