<svg width="120" height="120" viewBox="0 0 120 120" fill="none" xmlns="http://www.w3.org/2000/svg">
<g filter="url(#filter0_ii_834_2)">
<rect width="120" height="120" rx="60" fill="#F3F6FB"/>
</g>
<g clip-path="url(#clip0_834_2)">
<path d="M44.25 70.5H39.5833C38.2947 70.5 37.25 71.5447 37.25 72.8333V75.1667C37.25 76.4553 38.2947 77.5 39.5833 77.5H44.25C45.5387 77.5 46.5833 76.4553 46.5833 75.1667V72.8333C46.5833 71.5447 45.5387 70.5 44.25 70.5ZM39.5833 75.1667V72.8333H44.25V75.1667H39.5833Z" fill="#668DBB"/>
<path d="M68.7506 70.5H52.4173C51.1287 70.5 50.084 71.5447 50.084 72.8333V75.1667C50.084 76.4553 51.1287 77.5 52.4173 77.5H68.7506C70.0393 77.5 71.084 76.4553 71.084 75.1667V72.8333C71.084 71.5447 70.0393 70.5 68.7506 70.5ZM61.7506 72.8333H64.084V75.1667H61.7506V72.8333ZM59.4173 75.1667H57.084V72.8333H59.4173V75.1667ZM52.4173 72.8333H54.7506V75.1667H52.4173V72.8333ZM66.4173 75.1667V72.8333H68.7506V75.1667H66.4173Z" fill="#668DBB"/>
<path d="M74.584 72.8333V75.1667C74.584 76.4553 75.6287 77.5 76.9173 77.5H81.584C82.8727 77.5 83.9173 76.4553 83.9173 75.1667V72.8333C83.9173 71.5447 82.8727 70.5 81.584 70.5H76.9173C75.6287 70.5 74.584 71.5447 74.584 72.8333ZM81.584 75.1667H76.9173V72.8333H81.584V75.1667Z" fill="#668DBB"/>
<path d="M33.7503 34.3329V41.8556C32.3456 42.7759 31.4755 44.3212 31.417 45.9996V48.3329C31.417 48.9772 31.9393 49.4996 32.5837 49.4996H37.2503C37.8947 49.4996 38.417 48.9772 38.417 48.3329V45.9996C38.3585 44.3212 37.4884 42.7759 36.0837 41.8556V36.3372L45.417 39.1372V47.1662C45.4188 48.0473 45.7553 48.8947 46.3585 49.5369C45.4309 50.255 44.7284 51.2238 44.3343 52.3287L41.595 59.9996H38.417C36.488 60.0091 34.9266 61.5706 34.917 63.4996C34.9213 64.792 35.6395 65.9762 36.7837 66.5772L34.7712 68.1872C33.3846 69.2917 32.5789 70.9693 32.5837 72.7419V83.3329C32.5916 85.4544 34.0295 87.3036 36.0837 87.8339V91.4996C36.0837 93.4326 37.6507 94.9996 39.5837 94.9996H44.2503C46.1833 94.9996 47.7503 93.4326 47.7503 91.4996V87.9996H73.417V91.4996C73.417 93.4326 74.984 94.9996 76.917 94.9996H81.5837C83.5167 94.9996 85.0837 93.4326 85.0837 91.4996V87.8339C87.1378 87.3036 88.5757 85.4544 88.5837 83.3329V72.7419C88.586 70.9709 87.7802 69.2955 86.395 68.1919L84.3837 66.5772C85.5278 65.9762 86.2461 64.792 86.2503 63.4996C86.2408 61.5706 84.6794 60.0091 82.7503 59.9996H79.5723L76.833 52.3287C76.4389 51.2238 75.7364 50.255 74.8088 49.5369C75.412 48.8947 75.7485 48.0473 75.7503 47.1662V39.1337L86.1722 36.0106C86.9143 35.7908 87.4239 35.1096 87.4252 34.3356C87.4265 33.5617 86.9193 32.8788 86.178 32.6564L61.2172 25.0847C60.7866 24.9731 60.3343 24.9772 59.9058 25.0964L34.9952 32.6552C34.2525 32.8743 33.7447 33.5586 33.7503 34.3329ZM36.0837 47.1662H33.7503V45.9996C33.8021 45.1593 34.2309 44.3874 34.917 43.8996C35.6029 44.3876 36.0317 45.1593 36.0837 45.9996V47.1662ZM37.6073 62.6689C37.8201 62.4512 38.1126 62.3298 38.417 62.3329L40.7702 62.3072L39.9337 64.6662H38.417C37.7727 64.6662 37.2503 64.1439 37.2503 63.4996C37.2493 63.1852 37.3786 62.8845 37.6073 62.6689ZM34.917 83.3329V82.1663H51.2503V85.6663H37.2503C35.9617 85.6663 34.917 84.6216 34.917 83.3329ZM45.417 91.4996C45.417 92.1439 44.8947 92.6663 44.2503 92.6663H39.5837C38.9393 92.6663 38.417 92.1439 38.417 91.4996V87.9996H45.417V91.4996ZM53.5837 85.6663V82.1663H67.5837V85.6663H53.5837ZM82.7503 91.4996C82.7503 92.1439 82.228 92.6663 81.5837 92.6663H76.917C76.2727 92.6663 75.7503 92.1439 75.7503 91.4996V87.9996H82.7503V91.4996ZM86.2503 83.3329C86.2503 84.6216 85.2057 85.6663 83.917 85.6663H69.917V82.1663H86.2503V83.3329ZM86.2503 72.7419L86.2504 79.8329H34.917L34.917 72.7419C34.9148 71.6784 35.3986 70.6721 36.2307 70.0096L39.6735 67.2551C39.8798 67.0901 40.1361 67 40.4003 66.9996H80.767C81.032 66.9995 81.2892 67.0896 81.4962 67.2551L84.939 70.0096C85.7706 70.6722 86.2536 71.6786 86.2503 72.7419ZM82.7503 62.3329C83.0647 62.3319 83.3654 62.4611 83.581 62.6899C83.7987 62.9027 83.9201 63.1952 83.917 63.4996C83.917 64.1439 83.3947 64.6662 82.7503 64.6662H81.2337L80.4007 62.3329L82.7503 62.3329ZM77.5913 61.3914C77.5996 61.5511 77.6435 61.707 77.7197 61.8476C77.7391 61.8749 77.7601 61.901 77.7827 61.9257L78.7615 64.6662H42.4058L46.5323 53.1162C46.9814 51.6868 48.2906 50.7017 49.7885 50.6662H71.3788C72.8767 50.7017 74.1859 51.6868 74.635 53.1162L77.5913 61.3914ZM49.7885 48.3329H48.917C48.2727 48.3329 47.7503 47.8106 47.7503 47.1662V38.3917C48.8353 37.6217 52.557 35.4996 60.5837 35.4996C68.6103 35.4996 72.3437 37.6299 73.417 38.3917V47.1662C73.417 47.8106 72.8947 48.3329 72.2503 48.3329H49.7885ZM60.5837 27.3329L83.6545 34.3329L75.2347 36.8552C74.3982 36.1354 70.344 33.1662 60.5837 33.1662C50.8233 33.1662 46.7692 36.1354 45.9327 36.8517L37.5128 34.3329L60.5837 27.3329Z" fill="#668DBB"/>
</g>
<defs>
<filter id="filter0_ii_834_2" x="-4" y="-4" width="128" height="128" filterUnits="userSpaceOnUse" color-interpolation-filters="sRGB">
<feFlood flood-opacity="0" result="BackgroundImageFix"/>
<feBlend mode="normal" in="SourceGraphic" in2="BackgroundImageFix" result="shape"/>
<feColorMatrix in="SourceAlpha" type="matrix" values="0 0 0 0 0 0 0 0 0 0 0 0 0 0 0 0 0 0 127 0" result="hardAlpha"/>
<feOffset dx="4" dy="4"/>
<feGaussianBlur stdDeviation="2"/>
<feComposite in2="hardAlpha" operator="arithmetic" k2="-1" k3="1"/>
<feColorMatrix type="matrix" values="0 0 0 0 0.74902 0 0 0 0 0.811765 0 0 0 0 0.92549 0 0 0 0.64 0"/>
<feBlend mode="normal" in2="shape" result="effect1_innerShadow_834_2"/>
<feColorMatrix in="SourceAlpha" type="matrix" values="0 0 0 0 0 0 0 0 0 0 0 0 0 0 0 0 0 0 127 0" result="hardAlpha"/>
<feOffset dx="-4" dy="-4"/>
<feGaussianBlur stdDeviation="2"/>
<feComposite in2="hardAlpha" operator="arithmetic" k2="-1" k3="1"/>
<feColorMatrix type="matrix" values="0 0 0 0 0.74902 0 0 0 0 0.811765 0 0 0 0 0.92549 0 0 0 0.32 0"/>
<feBlend mode="normal" in2="effect1_innerShadow_834_2" result="effect2_innerShadow_834_2"/>
</filter>
<clipPath id="clip0_834_2">
<rect width="70" height="70" fill="white" transform="translate(25 25)"/>
</clipPath>
</defs>
</svg>
