<svg width="16" height="16" viewBox="0 0 16 16" fill="none" xmlns="http://www.w3.org/2000/svg">
<g clip-path="url(#clip0_191_8390)">
<path d="M8.66699 0.665779C8.66699 0.488968 8.73723 0.319398 8.86225 0.194374C8.98728 0.0693495 9.15685 -0.000888479 9.33366 -0.000888479C11.1012 0.00105259 12.7957 0.704055 14.0456 1.95388C15.2954 3.2037 15.9984 4.89827 16.0003 6.66578C16.0003 6.84259 15.9301 7.01216 15.8051 7.13719C15.68 7.26221 15.5105 7.33245 15.3337 7.33245C15.1569 7.33245 14.9873 7.26221 14.8623 7.13719C14.7372 7.01216 14.667 6.84259 14.667 6.66578C14.6654 5.25178 14.103 3.89615 13.1031 2.8963C12.1033 1.89645 10.7477 1.33403 9.33366 1.33245C9.15685 1.33245 8.98728 1.26221 8.86225 1.13718C8.73723 1.01216 8.66699 0.84259 8.66699 0.665779ZM9.33366 3.99911C10.0409 3.99911 10.7192 4.28007 11.2193 4.78016C11.7194 5.28026 12.0003 5.95854 12.0003 6.66578C12.0003 6.84259 12.0706 7.01216 12.1956 7.13719C12.3206 7.26221 12.4902 7.33245 12.667 7.33245C12.8438 7.33245 13.0134 7.26221 13.1384 7.13719C13.2634 7.01216 13.3337 6.84259 13.3337 6.66578C13.3326 5.60524 12.9108 4.58844 12.1609 3.83852C11.411 3.08861 10.3942 2.66684 9.33366 2.66578C9.15685 2.66578 8.98728 2.73602 8.86225 2.86104C8.73723 2.98607 8.66699 3.15564 8.66699 3.33245C8.66699 3.50926 8.73723 3.67883 8.86225 3.80385C8.98728 3.92888 9.15685 3.99911 9.33366 3.99911ZM15.3957 11.1585C15.782 11.5459 15.999 12.0707 15.999 12.6178C15.999 13.1649 15.782 13.6897 15.3957 14.0771L14.789 14.7765C9.32899 20.0038 -3.95769 6.72045 1.18898 1.24311L1.95565 0.576445C2.3435 0.200896 2.86361 -0.00685576 3.40346 -0.00186525C3.9433 0.00312526 4.45948 0.220457 4.84032 0.603112C4.86099 0.623779 6.09632 2.22845 6.09632 2.22845C6.46287 2.61353 6.66693 3.12507 6.66606 3.65672C6.66519 4.18837 6.45947 4.69923 6.09165 5.08312L5.31965 6.05378C5.74689 7.09186 6.37503 8.03528 7.16799 8.82985C7.96096 9.62441 8.90311 10.2545 9.94032 10.6838L10.917 9.90712C11.3009 9.53959 11.8117 9.33412 12.3432 9.33337C12.8747 9.33263 13.386 9.53667 13.771 9.90312C13.771 9.90312 15.375 11.1378 15.3957 11.1585ZM14.4783 12.1278C14.4783 12.1278 12.883 10.9005 12.8623 10.8798C12.725 10.7436 12.5394 10.6672 12.346 10.6672C12.1526 10.6672 11.967 10.7436 11.8297 10.8798C11.8117 10.8985 10.467 11.9698 10.467 11.9698C10.3764 12.0419 10.2685 12.0892 10.1541 12.107C10.0396 12.1247 9.92254 12.1124 9.81432 12.0711C8.47063 11.5708 7.25015 10.7876 6.23554 9.7745C5.22094 8.7614 4.43592 7.54207 3.93365 6.19912C3.88912 6.08942 3.8746 5.96984 3.89159 5.85267C3.90858 5.73551 3.95646 5.62498 4.03032 5.53245C4.03032 5.53245 5.10165 4.18711 5.11965 4.16978C5.25583 4.03244 5.33224 3.84686 5.33224 3.65345C5.33224 3.46004 5.25583 3.27446 5.11965 3.13711C5.09899 3.11711 3.87165 1.52045 3.87165 1.52045C3.73225 1.39545 3.55032 1.32851 3.36315 1.33334C3.17598 1.33818 2.99775 1.41442 2.86499 1.54645L2.09832 2.21311C-1.66302 6.73578 9.85099 17.6111 13.8143 13.8658L14.4217 13.1658C14.564 13.034 14.6495 12.852 14.66 12.6583C14.6706 12.4646 14.6055 12.2743 14.4783 12.1278Z" fill="#00418D"/>
</g>
<defs>
<clipPath id="clip0_191_8390">
<rect width="16" height="16" fill="white"/>
</clipPath>
</defs>
</svg>
