<svg width="120" height="120" viewBox="0 0 120 120" fill="none" xmlns="http://www.w3.org/2000/svg">
<g filter="url(#filter0_ii_647_3)">
<rect width="120" height="120" rx="60" fill="#F3F6FB"/>
</g>
<path d="M89.0747 60.1628L88.8008 59.248H90.8984C93.16 59.248 95 57.4081 95 55.1465C95 52.8849 93.16 51.0449 90.8984 51.0449H86.343L84.1177 43.6178C83.0232 39.9644 79.7254 37.5098 75.9116 37.5098H69.2285C68.4736 37.5098 67.8613 38.1219 67.8613 38.877C67.8613 39.6321 68.4736 40.2441 69.2285 40.2441H75.9116C78.5082 40.2441 80.7534 41.9153 81.4985 44.4026L85.9462 59.248H80.7181V56.9238C80.7181 53.8373 78.5304 51.253 75.6244 50.6378C76.0608 49.8804 76.3119 49.0033 76.3119 48.0681C76.3119 45.2206 73.9953 42.904 71.1478 42.904C68.3002 42.904 65.9836 45.2207 65.9836 48.0683C65.9836 49.0034 66.2348 49.8805 66.6712 50.6379C63.7652 51.2531 61.5776 53.8374 61.5776 56.924V59.2482H58.4227V56.924C58.4227 53.8374 56.235 51.2531 53.3289 50.6379C53.7654 49.8805 54.0165 49.0034 54.0165 48.0683C54.0165 45.2207 51.6999 42.9041 48.8524 42.9041C46.0048 42.9041 43.6882 45.2208 43.6882 48.0684C43.6882 49.0036 43.9394 49.8806 44.3758 50.638C41.4698 51.2533 39.2822 53.8375 39.2822 56.9241V59.2483H34.0541L38.5018 44.4029C39.2469 41.9157 41.4921 40.2444 44.0887 40.2444H58.291C59.046 40.2444 59.6582 39.6323 59.6582 38.8772C59.6582 38.1221 59.046 37.51 58.291 37.51H44.0884C40.2745 37.51 36.9767 39.9647 35.8823 43.6181L33.657 51.0449H29.1016C26.84 51.0449 25 52.8849 25 55.1465C25 57.4081 26.84 59.248 29.1016 59.248H31.1992L30.9251 60.1628C27.4335 61.7592 25 65.2827 25 69.3663V80.038C25 83.4269 27.7569 86.1838 31.1458 86.1838H32.9363V90.3256C32.9363 92.7147 34.8798 94.6582 37.2689 94.6582H40.0879C42.477 94.6582 44.4205 92.7146 44.4205 90.3256V86.1838H49.0625C49.8175 86.1838 50.4297 85.5716 50.4297 84.8166C50.4297 84.0617 49.8175 83.4495 49.0625 83.4495H43.0534H34.3034H31.1458C29.2647 83.4495 27.7344 81.919 27.7344 80.0379V69.3662C27.7344 65.2959 31.0458 61.9845 35.1161 61.9845H84.8839C88.9542 61.9845 92.2656 65.2959 92.2656 69.3662V80.0379C92.2656 81.919 90.7353 83.4493 88.8542 83.4493H85.6966H76.9466H60.0174C59.2624 83.4493 58.6502 84.0615 58.6502 84.8165C58.6502 85.5715 59.2624 86.1837 60.0174 86.1837H75.5794V90.3254C75.5794 92.7146 77.523 94.6581 79.912 94.6581H82.731C85.1202 94.6581 87.0636 92.7145 87.0636 90.3254V86.1837H88.8541C92.2429 86.1837 94.9999 83.4268 94.9999 80.0379V69.3662C95 65.2827 92.5665 61.7592 89.0747 60.1628ZM41.6862 86.1838V90.3256C41.6862 91.2069 40.9693 91.9238 40.088 91.9238H37.2689C36.3876 91.9238 35.6706 91.2069 35.6706 90.3256V86.1838H41.6862ZM90.8984 53.7793C91.6523 53.7793 92.2656 54.3926 92.2656 55.1465C92.2656 55.9004 91.6523 56.5137 90.8984 56.5137H87.9815L87.1623 53.7793H90.8984ZM71.1478 45.6384C72.4876 45.6384 73.5775 46.7284 73.5775 48.0683C73.5775 49.4081 72.4875 50.498 71.1478 50.498C69.8081 50.498 68.718 49.408 68.718 48.0681C68.718 46.7283 69.8079 45.6384 71.1478 45.6384ZM64.3118 56.9238C64.3118 54.8884 65.9678 53.2324 68.0032 53.2324H74.2923C76.3278 53.2324 77.9837 54.8884 77.9837 56.9238V59.248H64.3118V56.9238ZM48.8522 45.6384C50.1921 45.6384 51.282 46.7284 51.282 48.0683C51.282 49.4081 50.1919 50.498 48.8522 50.498C47.5125 50.498 46.4225 49.408 46.4225 48.0681C46.4223 46.7283 47.5124 45.6384 48.8522 45.6384ZM42.0163 56.9238C42.0163 54.8884 43.6722 53.2324 45.7077 53.2324H51.9968C54.0322 53.2324 55.6882 54.8884 55.6882 56.9238V59.248H42.0163V56.9238ZM29.1016 56.5137C28.3477 56.5137 27.7344 55.9004 27.7344 55.1465C27.7344 54.3926 28.3477 53.7793 29.1016 53.7793H32.8378L32.0186 56.5137H29.1016ZM84.3294 90.3256C84.3294 91.2069 83.6124 91.9238 82.7311 91.9238H79.9121C79.0308 91.9238 78.3139 91.2069 78.3139 90.3256V86.1838H84.3295V90.3256H84.3294Z" fill="#668DBB"/>
<path d="M54.5312 83.4492C54.1717 83.4492 53.8189 83.5943 53.5646 83.8484C53.3104 84.1041 53.1641 84.4555 53.1641 84.8164C53.1641 85.176 53.3102 85.5273 53.5646 85.7818C53.8189 86.0374 54.1717 86.1836 54.5312 86.1836C54.8908 86.1836 55.2436 86.0374 55.4977 85.7818C55.752 85.5275 55.8984 85.176 55.8984 84.8164C55.8984 84.4555 55.7521 84.1041 55.4977 83.8484C55.2436 83.5941 54.8908 83.4492 54.5312 83.4492Z" fill="#668DBB"/>
<path d="M63.7598 40.2441C64.1193 40.2441 64.4721 40.0979 64.7262 39.8436C64.9805 39.5893 65.127 39.2365 65.127 38.877C65.127 38.5174 64.9807 38.1646 64.7262 37.9104C64.4721 37.6561 64.1193 37.5098 63.7598 37.5098C63.4002 37.5098 63.0475 37.6561 62.7932 37.9104C62.5389 38.1646 62.3926 38.5174 62.3926 38.877C62.3926 39.2365 62.5387 39.5893 62.7932 39.8436C63.0476 40.0979 63.4002 40.2441 63.7598 40.2441Z" fill="#668DBB"/>
<path d="M72.3047 73.8771V70.9354C72.3047 68.8818 70.6338 67.2109 68.5802 67.2109H51.4198C49.3662 67.2109 47.6953 68.8818 47.6953 70.9354V73.8771C47.6953 75.9307 49.3662 77.6016 51.4198 77.6016H68.5802C70.6338 77.6016 72.3047 75.9307 72.3047 73.8771ZM69.5703 70.9354V73.8771C69.5703 74.423 69.1261 74.8672 68.5802 74.8672H66.8359V69.9453H68.5802C69.1261 69.9453 69.5703 70.3895 69.5703 70.9354ZM61.3672 69.9453H64.1016V74.8672H61.3672V69.9453ZM58.6328 74.8672H55.8984V69.9453H58.6328V74.8672ZM50.4297 73.8771V70.9354C50.4297 70.3895 50.8739 69.9453 51.4198 69.9453H53.1641V74.8672H51.4198C50.8739 74.8672 50.4297 74.423 50.4297 73.8771Z" fill="#668DBB"/>
<path d="M31.5693 72.4062C31.5693 76.0249 34.5132 78.9688 38.1318 78.9688C41.7505 78.9688 44.6943 76.0249 44.6943 72.4062C44.6943 68.7876 41.7505 65.8438 38.1318 65.8438C34.5132 65.8438 31.5693 68.7876 31.5693 72.4062ZM41.96 72.4062C41.96 74.5171 40.2426 76.2344 38.1318 76.2344C36.021 76.2344 34.3037 74.5171 34.3037 72.4062C34.3037 70.2954 36.021 68.5781 38.1318 68.5781C40.2426 68.5781 41.96 70.2954 41.96 72.4062Z" fill="#668DBB"/>
<path d="M81.8682 78.9688C85.4868 78.9688 88.4307 76.0249 88.4307 72.4062C88.4307 68.7876 85.4868 65.8438 81.8682 65.8438C78.2495 65.8438 75.3057 68.7876 75.3057 72.4062C75.3057 76.0249 78.2495 78.9688 81.8682 78.9688ZM81.8682 68.5781C83.979 68.5781 85.6963 70.2954 85.6963 72.4062C85.6963 74.5171 83.979 76.2344 81.8682 76.2344C79.7574 76.2344 78.04 74.5171 78.04 72.4062C78.04 70.2954 79.7574 68.5781 81.8682 68.5781Z" fill="#668DBB"/>
<path d="M66.5342 34.7754H91.2628C92.0177 34.7754 92.63 34.1633 92.63 33.4082C92.63 28.9603 89.0114 25.3418 84.5636 25.3418C82.0489 25.3418 79.7187 26.5027 78.2053 28.4438C77.557 28.1756 76.8574 28.0337 76.1502 28.0337C73.6589 28.0337 71.5582 29.7374 70.9518 32.041H66.5342C65.7792 32.041 65.167 32.6531 65.167 33.4082C65.167 34.1633 65.7792 34.7754 66.5342 34.7754ZM76.1502 30.768C76.7527 30.768 77.3206 30.9664 77.7921 31.3418C78.1102 31.5949 78.5241 31.6935 78.9223 31.6106C79.3201 31.5278 79.6605 31.2721 79.8513 30.9131C80.7801 29.1631 82.5859 28.076 84.5637 28.076C87.0313 28.076 89.1127 29.7611 89.7181 32.0409H73.8922C74.3557 31.2784 75.1945 30.768 76.1502 30.768Z" fill="#668DBB"/>
<path d="M31.5957 34.7754H56.3242C57.0791 34.7754 57.6914 34.1633 57.6914 33.4082C57.6914 28.9603 54.0727 25.3418 49.6249 25.3418C47.1103 25.3418 44.78 26.5025 43.2667 28.4437C42.6184 28.1754 41.9188 28.0337 41.2115 28.0337C38.7203 28.0337 36.6196 29.7374 36.0132 32.041H31.5957C30.8407 32.041 30.2285 32.6531 30.2285 33.4082C30.2285 34.1633 30.8407 34.7754 31.5957 34.7754ZM41.2115 30.768C41.8142 30.768 42.382 30.9664 42.8534 31.3417C43.1714 31.5949 43.5854 31.6938 43.9837 31.6106C44.3815 31.5279 44.7219 31.2722 44.9127 30.9131C45.8415 29.1631 47.6473 28.076 49.6251 28.076C52.0927 28.076 54.1741 29.7611 54.7795 32.0409H38.9538C39.4171 31.2784 40.2559 30.768 41.2115 30.768Z" fill="#668DBB"/>
<defs>
<filter id="filter0_ii_647_3" x="-4" y="-4" width="128" height="128" filterUnits="userSpaceOnUse" color-interpolation-filters="sRGB">
<feFlood flood-opacity="0" result="BackgroundImageFix"/>
<feBlend mode="normal" in="SourceGraphic" in2="BackgroundImageFix" result="shape"/>
<feColorMatrix in="SourceAlpha" type="matrix" values="0 0 0 0 0 0 0 0 0 0 0 0 0 0 0 0 0 0 127 0" result="hardAlpha"/>
<feOffset dx="4" dy="4"/>
<feGaussianBlur stdDeviation="2"/>
<feComposite in2="hardAlpha" operator="arithmetic" k2="-1" k3="1"/>
<feColorMatrix type="matrix" values="0 0 0 0 0.74902 0 0 0 0 0.811765 0 0 0 0 0.92549 0 0 0 0.64 0"/>
<feBlend mode="normal" in2="shape" result="effect1_innerShadow_647_3"/>
<feColorMatrix in="SourceAlpha" type="matrix" values="0 0 0 0 0 0 0 0 0 0 0 0 0 0 0 0 0 0 127 0" result="hardAlpha"/>
<feOffset dx="-4" dy="-4"/>
<feGaussianBlur stdDeviation="2"/>
<feComposite in2="hardAlpha" operator="arithmetic" k2="-1" k3="1"/>
<feColorMatrix type="matrix" values="0 0 0 0 0.74902 0 0 0 0 0.811765 0 0 0 0 0.92549 0 0 0 0.32 0"/>
<feBlend mode="normal" in2="effect1_innerShadow_647_3" result="effect2_innerShadow_647_3"/>
</filter>
</defs>
</svg>
