<svg width="16" height="12" viewBox="0 0 16 12" fill="none" xmlns="http://www.w3.org/2000/svg">
<path d="M14.8625 1.12775L14.8625 1.12778C15.1797 1.43317 15.1792 1.92958 14.8609 2.23418L5.84239 10.8738L5.84236 10.8738C5.69064 11.019 5.4856 11.1 5.27319 11.1L14.8625 1.12775ZM14.8625 1.12775C14.5474 0.824595 14.0377 0.823979 13.7225 1.12653L5.29793 9.19695L2.3015 6.07107L2.30148 6.07105C1.99925 5.75594 1.49032 5.73592 1.16233 6.02562L1.1623 6.02565C0.832161 6.31751 0.8106 6.81336 1.115 7.13101L1.11501 7.13103L4.67992 10.8497C4.82909 11.0054 5.03689 11.0951 5.25512 11.0997L14.8625 1.12775Z" fill="#00418D" stroke="#00418D" stroke-width="0.2"/>
</svg>
