<svg width="15" height="15" viewBox="0 0 15 15" fill="none" xmlns="http://www.w3.org/2000/svg">
<path d="M13.6993 2.70607L13.6993 2.7061C13.9294 2.93676 13.929 3.3104 13.6981 3.54049L7.45946 9.76281L7.45943 9.76284C7.34889 9.87298 7.19891 9.9349 7.04295 9.9349H7.04248L13.6993 2.70607ZM13.6993 2.70607C13.4691 2.47546 13.0954 2.47496 12.865 2.70517L7.06105 8.49384L5.01087 6.26715L5.01085 6.26713C4.7902 6.02762 4.41717 6.01211 4.17731 6.23268L4.17728 6.23272C3.93753 6.45339 3.92221 6.82662 4.14283 7.06632L4.14285 7.06633L6.60891 9.74453C6.60892 9.74454 6.60893 9.74455 6.60894 9.74456C6.71748 9.86251 6.8693 9.93112 7.02943 9.93471L13.6993 2.70607Z" fill="#668DBB" stroke="#668DBB" stroke-width="0.2"/>
<path d="M13.51 6.91004C13.1842 6.91004 12.9201 7.17414 12.9201 7.5C12.9201 10.4887 10.4887 12.9201 7.5 12.9201C4.5115 12.9201 2.0799 10.4887 2.0799 7.5C2.0799 4.5115 4.5115 2.0799 7.5 2.0799C7.82583 2.0799 8.08996 1.81581 8.08996 1.48996C8.08996 1.16409 7.82584 0.9 7.5 0.9C3.86063 0.9 0.9 3.86063 0.9 7.5C0.9 11.1392 3.86063 14.1 7.5 14.1C11.1392 14.1 14.1 11.1392 14.1 7.5C14.1 7.17416 13.8359 6.91004 13.51 6.91004Z" fill="#668DBB" stroke="#668DBB" stroke-width="0.2"/>
</svg>
