<svg width="10" height="10" viewBox="0 0 10 10" fill="none" xmlns="http://www.w3.org/2000/svg">
<path d="M8.99989 0.999879C8.87487 0.874898 8.70533 0.804688 8.52855 0.804688C8.35178 0.804688 8.18224 0.874898 8.05722 0.999879L4.99988 4.05722L1.94255 0.999879C1.81753 0.874898 1.64799 0.804688 1.47121 0.804688C1.29444 0.804688 1.1249 0.874898 0.999879 0.999879C0.874898 1.1249 0.804688 1.29444 0.804688 1.47121C0.804688 1.64799 0.874898 1.81753 0.999879 1.94255L4.05722 4.99988L0.999879 8.05722C0.874898 8.18224 0.804688 8.35178 0.804688 8.52855C0.804688 8.70533 0.874898 8.87487 0.999879 8.99989C1.1249 9.12487 1.29444 9.19508 1.47121 9.19508C1.64799 9.19508 1.81753 9.12487 1.94255 8.99989L4.99988 5.94255L8.05722 8.99989C8.18224 9.12487 8.35178 9.19508 8.52855 9.19508C8.70533 9.19508 8.87487 9.12487 8.99989 8.99989C9.12487 8.87487 9.19508 8.70533 9.19508 8.52855C9.19508 8.35178 9.12487 8.18224 8.99989 8.05722L5.94255 4.99988L8.99989 1.94255C9.12487 1.81753 9.19508 1.64799 9.19508 1.47121C9.19508 1.29444 9.12487 1.1249 8.99989 0.999879Z" fill="white"/>
</svg>
