<svg width="259" height="130" viewBox="0 0 259 130" fill="none" xmlns="http://www.w3.org/2000/svg">
<mask id="mask0_517_1652" style="mask-type:alpha" maskUnits="userSpaceOnUse" x="4" y="28" width="250" height="99">
<path d="M43.056 102C36.912 102 31.056 102.048 25.488 102.144C19.92 102.336 14.064 102.624 7.92 103.008C6.96 101.184 6.096 99.168 5.328 96.96C4.56 94.752 4.176 92.496 4.176 90.192L52.704 29.136C55.104 29.04 57.456 29.088 59.76 29.28C62.16 29.472 64.368 29.808 66.384 30.288V123.024C64.272 123.024 62.064 123.168 59.76 123.456C57.456 123.84 55.344 124.272 53.424 124.752C51.504 125.328 49.824 125.952 48.384 126.624C47.424 125.856 46.704 124.896 46.224 123.744C45.84 122.688 45.648 121.296 45.648 119.568V99.264V96.096V45.696L49.536 46.128L19.44 88.32L19.152 84.576L60.336 84.432H63.504H76.176C77.808 84.432 79.104 84.672 80.064 85.152C81.12 85.536 81.984 86.304 82.656 87.456C81.984 89.088 81.408 90.672 80.928 92.208C80.544 93.744 80.208 95.328 79.92 96.96C79.728 98.496 79.632 100.176 79.632 102H43.056ZM125.988 38.352C122.628 38.352 119.748 39.456 117.348 41.664C114.948 43.776 113.076 46.656 111.732 50.304C110.484 53.856 109.86 57.792 109.86 62.112C109.86 65.568 110.34 69.12 111.3 72.768C112.356 76.416 113.844 79.776 115.764 82.848C117.684 85.92 119.988 88.416 122.676 90.336C125.46 92.256 128.628 93.216 132.18 93.216C135.732 93.216 138.612 92.112 140.82 89.904C143.028 87.696 144.66 84.768 145.716 81.12C146.868 77.376 147.444 73.392 147.444 69.168C147.444 65.904 146.964 62.496 146.004 58.944C145.044 55.296 143.652 51.936 141.828 48.864C140.004 45.696 137.748 43.152 135.06 41.232C132.468 39.312 129.444 38.352 125.988 38.352ZM129.3 29.136C136.596 29.136 143.172 30.528 149.028 33.312C154.884 36.096 159.54 40.176 162.996 45.552C166.452 50.928 168.18 57.504 168.18 65.28C168.18 73.152 166.404 79.968 162.852 85.728C159.396 91.392 154.74 95.76 148.884 98.832C143.028 101.808 136.5 103.296 129.3 103.296C122.1 103.296 115.476 101.808 109.428 98.832C103.38 95.76 98.5316 91.392 94.8836 85.728C91.3316 79.968 89.5556 73.152 89.5556 65.28C89.5556 59.328 90.6116 54.096 92.7236 49.584C94.9316 45.072 97.9076 41.328 101.652 38.352C105.492 35.28 109.764 32.976 114.468 31.44C119.268 29.904 124.212 29.136 129.3 29.136ZM213.775 102C207.631 102 201.775 102.048 196.207 102.144C190.639 102.336 184.783 102.624 178.639 103.008C177.679 101.184 176.815 99.168 176.047 96.96C175.279 94.752 174.895 92.496 174.895 90.192L223.423 29.136C225.823 29.04 228.175 29.088 230.479 29.28C232.879 29.472 235.087 29.808 237.103 30.288V123.024C234.991 123.024 232.783 123.168 230.479 123.456C228.175 123.84 226.063 124.272 224.143 124.752C222.223 125.328 220.543 125.952 219.103 126.624C218.143 125.856 217.423 124.896 216.943 123.744C216.559 122.688 216.367 121.296 216.367 119.568V99.264V96.096V45.696L220.255 46.128L190.159 88.32L189.871 84.576L231.055 84.432H234.223H246.895C248.527 84.432 249.823 84.672 250.783 85.152C251.839 85.536 252.703 86.304 253.375 87.456C252.703 89.088 252.127 90.672 251.647 92.208C251.263 93.744 250.927 95.328 250.639 96.96C250.447 98.496 250.351 100.176 250.351 102H213.775Z" fill="#00418D"/>
</mask>
<g mask="url(#mask0_517_1652)">
<path d="M-416 -309H684V424H-416V-309Z" fill="#00418D"/>
</g>
</svg>
