<svg width="120" height="120" viewBox="0 0 120 120" fill="none" xmlns="http://www.w3.org/2000/svg">
<g filter="url(#filter0_ii_834_3)">
<rect width="120" height="120" rx="60" fill="#F3F6FB"/>
</g>
<g clip-path="url(#clip0_834_3)">
<path d="M28.2247 61.1663L34.2389 64.1728C34.887 64.4966 35.6015 64.6655 36.326 64.6663H46C47.1772 64.6638 48.3093 64.2133 49.1664 63.4063C49.5822 63.9016 50.1275 64.2716 50.7414 64.4749L36.5932 79.3301C35.1397 80.8461 34.3298 82.8661 34.3334 84.9663V91.4996C34.3334 92.4279 34.7021 93.3181 35.3585 93.9745C36.0149 94.6309 36.9051 94.9996 37.8334 94.9996H89.1667C91.0997 94.9996 92.6667 93.4326 92.6667 91.4996V84.4996C92.6667 82.5666 91.0997 80.9996 89.1667 80.9996H74.7117C71.6458 80.9903 69.1081 78.6135 68.8982 75.5548L68.2577 66.057C68.2035 65.2933 67.961 64.555 67.5519 63.9079L76.8479 52.715C77.2324 52.8562 77.6388 52.9285 78.0484 52.9284C78.1581 52.9284 78.2689 52.9285 78.3785 52.9133C79.3035 52.8313 80.1572 52.3826 80.7492 51.6673L81.8996 50.2813C82.433 49.6361 82.5799 48.7546 82.2846 47.9713C81.9991 47.194 82.1503 46.3235 82.6812 45.6881C83.0279 45.2797 83.4853 44.9803 83.9984 44.826C85.3934 44.4173 86.4015 43.2039 86.5476 41.7576C86.6047 41.2247 86.815 40.7198 87.153 40.304C87.6799 39.6652 88.5078 39.3564 89.3242 39.4943C90.1481 39.6414 90.9877 39.336 91.5246 38.694L92.6761 37.308C93.6258 36.1709 93.7481 34.556 92.9806 33.2888L93.8626 32.226C95.0971 30.7391 94.8929 28.533 93.4064 27.298L91.6167 25.807C90.1284 24.5756 87.9246 24.7795 86.6876 26.2631L85.8067 27.3248C84.4198 26.8029 82.8544 27.2201 81.9112 28.3631L69.9797 42.7225C69.0401 43.8632 68.9182 45.4712 69.6752 46.7405L61.1667 56.992V44.833C61.1667 42.9 59.5997 41.333 57.6667 41.333H51.8334C51.2375 41.3369 50.6527 41.4948 50.1359 41.7915C49.9659 41.5017 49.7535 41.2391 49.5059 41.0121C46.1915 37.861 44.1661 33.5908 43.823 29.0305C43.6005 26.8955 41.9034 25.2135 39.7665 25.0101C38.5517 24.9198 37.354 25.3387 36.4602 26.1663C35.6312 26.9227 35.1319 27.9741 35.0695 29.0946C34.8722 32.7346 35.5868 36.3662 37.1485 39.66C37.3244 40.023 37.2983 40.4514 37.0797 40.7905C36.8715 41.1302 36.5005 41.336 36.102 41.333H30.8334C27.6133 41.3368 25.0039 43.9462 25 47.1663V55.9489C24.9924 58.1606 26.2431 60.1841 28.2247 61.1663ZM74.7117 83.3329H89.1667C89.8111 83.3329 90.3334 83.8553 90.3334 84.4996V87.9996H47.1667C46.5224 87.9996 46 88.5219 46 89.1663C46 89.8106 46.5224 90.3329 47.1667 90.3329H90.3334V91.4996C90.3334 92.1439 89.8111 92.6663 89.1667 92.6663H37.8334C37.189 92.6663 36.6667 92.1439 36.6667 91.4996V90.3329H41.3334C41.9777 90.3329 42.5 89.8106 42.5 89.1663C42.5 88.5219 41.9777 87.9996 41.3334 87.9996H36.6667V84.9663C36.6642 83.466 37.2429 82.023 38.2814 80.9401L53.7805 64.6663H57.6667C59.587 64.6664 61.1488 63.1192 61.1667 61.1989L65.1602 64.6289C65.1904 64.6661 65.2232 64.7012 65.2582 64.7339C65.6617 65.1248 65.9029 65.6535 65.9337 66.2145L66.5742 75.7099C66.8679 79.9918 70.4199 83.3191 74.7117 83.3329ZM65.9267 62.2163L62.3882 59.1829L71.3295 48.4088L74.924 51.3873L65.9267 62.2163ZM88.4772 27.7541C88.889 27.2587 89.6244 27.1908 90.1199 27.6025L91.9154 29.0935C92.4108 29.5052 92.4787 30.2406 92.0671 30.7361L91.3227 31.6333L87.7329 28.6513L88.4772 27.7541ZM71.774 44.2135L83.7009 29.853C83.8991 29.6162 84.1832 29.4677 84.4907 29.44H84.6074C84.8782 29.4391 85.1408 29.5332 85.3494 29.706L90.7336 34.179C91.2253 34.5927 91.2929 35.3249 90.8852 35.8216L89.7326 37.2088V37.2006C88.092 36.9181 86.4257 37.5349 85.3646 38.8176C84.7365 39.584 84.3442 40.5161 84.2352 41.501C84.1877 42.017 83.8274 42.4506 83.3287 42.5918C82.375 42.8787 81.5254 43.4369 80.8834 44.1983C79.8179 45.4779 79.52 47.2305 80.1029 48.7903L78.9514 50.1775C78.5385 50.6687 77.8075 50.7368 77.3111 50.3303L76.611 49.747L71.9304 45.8596C71.4377 45.4466 71.3695 44.7138 71.7775 44.217L71.774 44.2135ZM51.8334 43.6663H57.6667C58.311 43.6663 58.8334 44.1886 58.8334 44.833V61.1663C58.8334 61.8106 58.311 62.333 57.6667 62.333H51.8334C51.189 62.333 50.6667 61.8106 50.6667 61.1663V44.833C50.6667 44.1886 51.189 43.6663 51.8334 43.6663ZM27.3334 47.1663C27.3334 45.2333 28.9004 43.6663 30.8334 43.6663H36.102C37.3001 43.6621 38.4127 43.0455 39.0513 42.0319C39.6899 41.0182 39.7656 39.7483 39.252 38.666C37.8572 35.7238 37.2188 32.4801 37.3947 29.2288C37.4243 28.7153 37.6543 28.2339 38.0352 27.8883C38.4573 27.4899 39.028 27.2882 39.6067 27.333C40.6216 27.4493 41.4145 28.2637 41.5037 29.2813C41.9131 34.4177 44.2142 39.2194 47.9612 42.7563C48.2019 42.974 48.3375 43.2846 48.3334 43.6091V59.9996C48.3334 61.2883 47.2887 62.333 46 62.333H36.326C35.964 62.3325 35.607 62.2483 35.283 62.0868L29.2677 59.0791C28.0788 58.49 27.3285 57.2758 27.3334 55.9489V47.1663Z" fill="#668DBB"/>
<path d="M55.3337 59.9993C55.978 59.9993 56.5003 59.477 56.5003 58.8327C56.5003 58.1883 55.978 57.666 55.3337 57.666C54.6893 57.666 54.167 58.1883 54.167 58.8327C54.167 59.477 54.6893 59.9993 55.3337 59.9993Z" fill="#668DBB"/>
<path d="M55.3337 55.3333C55.978 55.3333 56.5003 54.811 56.5003 54.1667C56.5003 53.5223 55.978 53 55.3337 53C54.6893 53 54.167 53.5223 54.167 54.1667C54.167 54.811 54.6893 55.3333 55.3337 55.3333Z" fill="#668DBB"/>
</g>
<defs>
<filter id="filter0_ii_834_3" x="-4" y="-4" width="128" height="128" filterUnits="userSpaceOnUse" color-interpolation-filters="sRGB">
<feFlood flood-opacity="0" result="BackgroundImageFix"/>
<feBlend mode="normal" in="SourceGraphic" in2="BackgroundImageFix" result="shape"/>
<feColorMatrix in="SourceAlpha" type="matrix" values="0 0 0 0 0 0 0 0 0 0 0 0 0 0 0 0 0 0 127 0" result="hardAlpha"/>
<feOffset dx="4" dy="4"/>
<feGaussianBlur stdDeviation="2"/>
<feComposite in2="hardAlpha" operator="arithmetic" k2="-1" k3="1"/>
<feColorMatrix type="matrix" values="0 0 0 0 0.74902 0 0 0 0 0.811765 0 0 0 0 0.92549 0 0 0 0.64 0"/>
<feBlend mode="normal" in2="shape" result="effect1_innerShadow_834_3"/>
<feColorMatrix in="SourceAlpha" type="matrix" values="0 0 0 0 0 0 0 0 0 0 0 0 0 0 0 0 0 0 127 0" result="hardAlpha"/>
<feOffset dx="-4" dy="-4"/>
<feGaussianBlur stdDeviation="2"/>
<feComposite in2="hardAlpha" operator="arithmetic" k2="-1" k3="1"/>
<feColorMatrix type="matrix" values="0 0 0 0 0.74902 0 0 0 0 0.811765 0 0 0 0 0.92549 0 0 0 0.32 0"/>
<feBlend mode="normal" in2="effect1_innerShadow_834_3" result="effect2_innerShadow_834_3"/>
</filter>
<clipPath id="clip0_834_3">
<rect width="70" height="70" fill="white" transform="translate(25 25)"/>
</clipPath>
</defs>
</svg>
