<svg width="120" height="120" viewBox="0 0 120 120" fill="none" xmlns="http://www.w3.org/2000/svg">
<g filter="url(#filter0_ii_616_7)">
<rect width="120" height="120" rx="60" fill="#F3F6FB"/>
</g>
<g clip-path="url(#clip0_616_7)">
<path d="M91.5853 39.8412L91.7481 39.3847H93.6341C94.3885 39.3847 95.0001 38.773 95.0001 38.0186C95.0001 37.2643 94.3885 36.6526 93.6341 36.6526H90.785C90.5659 36.6526 90.3559 36.705 90.1689 36.7997L88.9771 31.9469C88.3719 29.4828 86.177 27.7617 83.6397 27.7617H69.9655C67.4282 27.7617 65.2334 29.4827 64.6281 31.9469L63.4362 36.7997C63.2492 36.705 63.0392 36.6526 62.8201 36.6526H59.971C59.2166 36.6526 58.605 37.2643 58.605 38.0186C58.605 38.773 59.2166 39.3847 59.971 39.3847H61.857L62.0198 39.8412C60.0279 40.5826 58.605 42.5028 58.605 44.7499V45.1791H53.5575C52.9584 44.0622 51.7795 43.3007 50.4257 43.3007H39.7705C38.4167 43.3007 37.2379 44.0622 36.6387 45.1791H29.3714C26.961 45.1791 25 47.14 25 49.5505V87.8683C25 90.2787 26.961 92.2397 29.3714 92.2397H60.8248C63.2352 92.2397 65.1962 90.2787 65.1962 87.8683V60.5861C65.3615 60.6124 65.531 60.6264 65.7036 60.6264H67.7868C69.5658 60.6264 71.0133 59.179 71.0133 57.3999V54.8225H82.5918V57.3999C82.5918 59.179 84.0392 60.6264 85.8182 60.6264H87.9014C89.6804 60.6264 91.1279 59.179 91.1279 57.3999V54.8225H93.6341C94.3885 54.8225 95.0001 54.2108 95.0001 53.4564V44.75C95 42.5028 93.5771 40.5826 91.5853 39.8412ZM67.2813 32.5985C67.5857 31.3594 68.6895 30.4938 69.9655 30.4938H83.6396C84.9156 30.4938 86.0193 31.3592 86.3236 32.5984L88.0222 39.514H65.5828L67.2813 32.5985ZM39.7705 46.0327H50.4257C50.8777 46.0327 51.2454 46.4003 51.2454 46.8524V49.9943C51.2454 50.4463 50.8777 50.8139 50.4257 50.8139H39.7705C39.3185 50.8139 38.9508 50.4463 38.9508 49.9943V46.8524C38.9508 46.4005 39.3185 46.0327 39.7705 46.0327ZM62.4641 87.8682C62.4641 88.7721 61.7287 89.5075 60.8248 89.5075H29.3714C28.4675 89.5075 27.7321 88.7721 27.7321 87.8682V49.5503C27.7321 48.6464 28.4675 47.911 29.3714 47.911H36.2187V49.9943C36.2187 51.9528 37.8121 53.546 39.7705 53.546H50.4257C52.3841 53.546 53.9775 51.9528 53.9775 49.9943V47.911H60.8248C61.7287 47.911 62.4641 48.6464 62.4641 49.5503V87.8682ZM68.2812 57.3998C68.2812 57.6723 68.0593 57.8942 67.7868 57.8942H65.7036C65.431 57.8942 65.2093 57.6723 65.2093 57.3998V54.8223H68.2812V57.3998ZM88.3958 57.3998C88.3958 57.6723 88.1739 57.8942 87.9014 57.8942H85.8182C85.5457 57.8942 85.3239 57.6723 85.3239 57.3998V54.8223H88.3958V57.3998ZM92.2679 52.0902H89.7617H83.9578H69.6472H65.1962V49.5503C65.1962 47.3134 63.5068 45.4646 61.3371 45.2099V44.7497C61.3371 43.3708 62.4578 42.2487 63.8362 42.2464C63.8377 42.2464 63.8392 42.2466 63.8407 42.2466C63.8438 42.2466 63.8469 42.2461 63.8501 42.2461H89.7547C89.7579 42.2461 89.761 42.2466 89.7642 42.2466C89.7657 42.2466 89.7672 42.2464 89.7687 42.2464C91.147 42.2489 92.2677 43.3708 92.2677 44.7497V52.0902H92.2679Z" fill="#668DBB"/>
<path d="M68.8973 45.8027C68.538 45.8027 68.1856 45.9489 67.9315 46.2031C67.6774 46.4571 67.5312 46.8095 67.5312 47.1688C67.5312 47.5281 67.6774 47.8805 67.9315 48.1346C68.1856 48.3887 68.538 48.5349 68.8973 48.5349C69.2566 48.5349 69.609 48.3888 69.8631 48.1346C70.1172 47.8805 70.2634 47.5281 70.2634 47.1688C70.2634 46.8095 70.1172 46.4571 69.8631 46.2031C69.609 45.9489 69.2566 45.8027 68.8973 45.8027Z" fill="#668DBB"/>
<path d="M84.7088 45.8027C84.3482 45.8027 83.9971 45.9489 83.743 46.2031C83.4876 46.4571 83.3428 46.8095 83.3428 47.1688C83.3428 47.5281 83.4876 47.8805 83.743 48.1346C83.9971 48.3887 84.3482 48.5349 84.7088 48.5349C85.0681 48.5349 85.4192 48.3888 85.6746 48.1346C85.9287 47.8805 86.0749 47.5281 86.0749 47.1688C86.0749 46.8095 85.9287 46.4571 85.6746 46.2031C85.4192 45.9489 85.0681 45.8027 84.7088 45.8027Z" fill="#668DBB"/>
<path d="M79.2444 45.8398H74.3612C73.6067 45.8398 72.9951 46.4516 72.9951 47.2059C72.9951 47.9602 73.6067 48.572 74.3612 48.572H79.2444C79.9989 48.572 80.6105 47.9602 80.6105 47.2059C80.6105 46.4516 79.9989 45.8398 79.2444 45.8398Z" fill="#668DBB"/>
<path d="M37.8898 68.3922L35.0308 71.2512L34.003 70.2233C33.4696 69.69 32.6046 69.69 32.071 70.2233C31.5375 70.7568 31.5375 71.6218 32.071 72.1554L34.0649 74.1493C34.3317 74.4159 34.6812 74.5494 35.0308 74.5494C35.3804 74.5494 35.7301 74.4159 35.9968 74.1493L39.8217 70.3243C40.3552 69.7909 40.3552 68.9259 39.8217 68.3923C39.2883 67.8588 38.4233 67.8588 37.8898 68.3922Z" fill="#668DBB"/>
<path d="M57.019 70.6562H45.453C44.6985 70.6562 44.0869 71.268 44.0869 72.0223C44.0869 72.7767 44.6985 73.3884 45.453 73.3884H57.019C57.7734 73.3884 58.385 72.7767 58.385 72.0223C58.385 71.268 57.7734 70.6562 57.019 70.6562Z" fill="#668DBB"/>
<path d="M37.8898 57.4644L35.0308 60.3235L34.003 59.2956C33.4696 58.7623 32.6046 58.7623 32.071 59.2956C31.5375 59.8291 31.5375 60.6941 32.071 61.2276L34.0649 63.2216C34.3317 63.4882 34.6812 63.6217 35.0308 63.6217C35.3804 63.6217 35.7301 63.4882 35.9968 63.2216L39.8217 59.3966C40.3552 58.8631 40.3552 57.9981 39.8217 57.4646C39.2883 56.9311 38.4233 56.9311 37.8898 57.4644Z" fill="#668DBB"/>
<path d="M57.0194 59.7266C56.6601 59.7266 56.3077 59.8726 56.0536 60.1268C55.7995 60.381 55.6533 60.7334 55.6533 61.0926C55.6533 61.4519 55.7995 61.8044 56.0536 62.0583C56.3077 62.3124 56.6601 62.4587 57.0194 62.4587C57.3787 62.4587 57.7311 62.3125 57.9852 62.0583C58.2393 61.8044 58.3854 61.4519 58.3854 61.0926C58.3854 60.7334 58.2393 60.3809 57.9852 60.1268C57.7311 59.8726 57.3787 59.7266 57.0194 59.7266Z" fill="#668DBB"/>
<path d="M45.453 62.4587H51.5547C52.3092 62.4587 52.9208 61.847 52.9208 61.0926C52.9208 60.3383 52.3092 59.7266 51.5547 59.7266H45.453C44.6985 59.7266 44.0869 60.3383 44.0869 61.0926C44.0869 61.847 44.6985 62.4587 45.453 62.4587Z" fill="#668DBB"/>
<path d="M37.8898 79.3199L35.0308 82.1789L34.003 81.1511C33.4696 80.6178 32.6046 80.6178 32.071 81.1511C31.5375 81.6845 31.5375 82.5495 32.071 83.0831L34.0649 85.077C34.3317 85.3437 34.6812 85.4771 35.0308 85.4771C35.3804 85.4771 35.7301 85.3437 35.9968 85.077L39.8217 81.252C40.3552 80.7186 40.3552 79.8536 39.8217 79.32C39.2883 78.7866 38.4233 78.7866 37.8898 79.3199Z" fill="#668DBB"/>
<path d="M57.019 81.584H45.453C44.6985 81.584 44.0869 82.1957 44.0869 82.95C44.0869 83.7044 44.6985 84.3161 45.453 84.3161H57.019C57.7734 84.3161 58.385 83.7044 58.385 82.95C58.385 82.1957 57.7734 81.584 57.019 81.584Z" fill="#668DBB"/>
</g>
<defs>
<filter id="filter0_ii_616_7" x="-4" y="-4" width="128" height="128" filterUnits="userSpaceOnUse" color-interpolation-filters="sRGB">
<feFlood flood-opacity="0" result="BackgroundImageFix"/>
<feBlend mode="normal" in="SourceGraphic" in2="BackgroundImageFix" result="shape"/>
<feColorMatrix in="SourceAlpha" type="matrix" values="0 0 0 0 0 0 0 0 0 0 0 0 0 0 0 0 0 0 127 0" result="hardAlpha"/>
<feOffset dx="4" dy="4"/>
<feGaussianBlur stdDeviation="2"/>
<feComposite in2="hardAlpha" operator="arithmetic" k2="-1" k3="1"/>
<feColorMatrix type="matrix" values="0 0 0 0 0.74902 0 0 0 0 0.811765 0 0 0 0 0.92549 0 0 0 0.64 0"/>
<feBlend mode="normal" in2="shape" result="effect1_innerShadow_616_7"/>
<feColorMatrix in="SourceAlpha" type="matrix" values="0 0 0 0 0 0 0 0 0 0 0 0 0 0 0 0 0 0 127 0" result="hardAlpha"/>
<feOffset dx="-4" dy="-4"/>
<feGaussianBlur stdDeviation="2"/>
<feComposite in2="hardAlpha" operator="arithmetic" k2="-1" k3="1"/>
<feColorMatrix type="matrix" values="0 0 0 0 0.74902 0 0 0 0 0.811765 0 0 0 0 0.92549 0 0 0 0.32 0"/>
<feBlend mode="normal" in2="effect1_innerShadow_616_7" result="effect2_innerShadow_616_7"/>
</filter>
<clipPath id="clip0_616_7">
<rect width="70" height="70" fill="white" transform="translate(25 25)"/>
</clipPath>
</defs>
</svg>
