<svg width="12" height="12" viewBox="0 0 12 12" fill="none" xmlns="http://www.w3.org/2000/svg">
<g clip-path="url(#clip0_219_13265)">
<path d="M11.6358 4.70939C10.8603 3.44639 9.09627 1.32739 6.00027 1.32739C2.90427 1.32739 1.14027 3.44639 0.36477 4.70939C0.125034 5.09715 -0.00195312 5.54402 -0.00195312 5.9999C-0.00195313 6.45577 0.125034 6.90264 0.36477 7.2904C1.14027 8.5534 2.90427 10.6724 6.00027 10.6724C9.09627 10.6724 10.8603 8.5534 11.6358 7.2904C11.8755 6.90264 12.0025 6.45577 12.0025 5.9999C12.0025 5.54402 11.8755 5.09715 11.6358 4.70939ZM10.7833 6.7669C10.1173 7.8499 8.60977 9.6724 6.00027 9.6724C3.39077 9.6724 1.88327 7.8499 1.21727 6.7669C1.07484 6.53642 0.999395 6.27083 0.999395 5.9999C0.999395 5.72896 1.07484 5.46337 1.21727 5.23289C1.88327 4.14989 3.39077 2.32739 6.00027 2.32739C8.60977 2.32739 10.1173 4.14789 10.7833 5.23289C10.9257 5.46337 11.0011 5.72896 11.0011 5.9999C11.0011 6.27083 10.9257 6.53642 10.7833 6.7669Z" fill="#668DBB"/>
<path d="M6 3.5C5.50555 3.5 5.0222 3.64662 4.61108 3.92133C4.19995 4.19603 3.87952 4.58648 3.6903 5.04329C3.50108 5.50011 3.45157 6.00277 3.54804 6.48773C3.6445 6.97268 3.8826 7.41814 4.23223 7.76777C4.58187 8.1174 5.02732 8.3555 5.51228 8.45196C5.99723 8.54843 6.49989 8.49892 6.95671 8.3097C7.41352 8.12048 7.80397 7.80005 8.07868 7.38893C8.35338 6.9778 8.5 6.49445 8.5 6C8.49921 5.3372 8.23556 4.70178 7.76689 4.23311C7.29822 3.76444 6.6628 3.50079 6 3.5ZM6 7.5C5.70333 7.5 5.41332 7.41203 5.16665 7.2472C4.91997 7.08238 4.72771 6.84811 4.61418 6.57403C4.50065 6.29994 4.47095 5.99834 4.52882 5.70736C4.5867 5.41639 4.72956 5.14912 4.93934 4.93934C5.14912 4.72956 5.41639 4.5867 5.70737 4.52882C5.99834 4.47094 6.29994 4.50065 6.57403 4.61418C6.84812 4.72771 7.08238 4.91997 7.24721 5.16664C7.41203 5.41332 7.5 5.70333 7.5 6C7.5 6.39783 7.34197 6.77936 7.06066 7.06066C6.77936 7.34197 6.39783 7.5 6 7.5Z" fill="#668DBB"/>
</g>
<defs>
<clipPath id="clip0_219_13265">
<rect width="12" height="12" fill="white"/>
</clipPath>
</defs>
</svg>
