<svg width="325" height="235" viewBox="0 0 325 235" fill="none" xmlns="http://www.w3.org/2000/svg">
<path d="M255.246 1.91419L18.6589 81.0753C2.34937 86.5324 -4.35611 110.856 3.76951 135.14L25.0969 198.881C33.2225 223.166 53.2158 238.556 69.5253 233.099L261.738 168.785C257.479 170.338 254.576 171.404 254.576 171.404C279.403 204.27 307.582 199.098 320.949 193.927C323.216 193.041 322.56 188.432 320.003 187.032C305.771 179.308 299.207 161.109 297.802 156.719L306.084 153.947C322.394 148.49 329.099 124.167 320.974 99.8822L299.656 36.17C291.559 11.8755 271.556 -3.54291 255.246 1.91419Z" fill="#F3F6FB"/>
</svg>
