<svg width="13" height="16" viewBox="0 0 13 16" fill="none" xmlns="http://www.w3.org/2000/svg">
<mask id="path-1-inside-1_40_104" fill="white">
<path d="M6.49999 0C4.77678 0.0019408 3.12468 0.703516 1.90612 1.95082C0.687573 3.19812 0.00206833 4.88929 0 6.65333C0 8.36666 1.29596 11.048 3.85206 14.6227C4.15636 15.0494 4.55479 15.3966 5.01491 15.6359C5.47504 15.8753 5.98387 16 6.49999 16C7.01611 16 7.52494 15.8753 7.98506 15.6359C8.44517 15.3966 8.84364 15.0494 9.14789 14.6227C11.704 11.048 13 8.36666 13 6.65333C12.9979 4.88929 12.3124 3.19812 11.0939 1.95082C9.87528 0.703516 8.2232 0.0019408 6.49999 0ZM6.49999 9.30534C5.98478 9.30534 5.48114 9.14889 5.05276 8.85591C4.62438 8.5629 4.2905 8.14642 4.09333 7.65915C3.89617 7.17188 3.84458 6.6357 3.9451 6.11842C4.04561 5.60114 4.29371 5.12599 4.65801 4.75304C5.02232 4.38011 5.48648 4.12613 5.99179 4.02324C6.4971 3.92034 7.02087 3.97315 7.49686 4.17498C7.97285 4.37682 8.3797 4.71861 8.66589 5.15714C8.95218 5.59567 9.10491 6.11125 9.10491 6.63866C9.10491 7.34591 8.83053 8.02418 8.34193 8.52428C7.85345 9.02436 7.19086 9.30534 6.49999 9.30534Z"/>
</mask>
<path d="M6.49999 0C4.77678 0.0019408 3.12468 0.703516 1.90612 1.95082C0.687573 3.19812 0.00206833 4.88929 0 6.65333C0 8.36666 1.29596 11.048 3.85206 14.6227C4.15636 15.0494 4.55479 15.3966 5.01491 15.6359C5.47504 15.8753 5.98387 16 6.49999 16C7.01611 16 7.52494 15.8753 7.98506 15.6359C8.44517 15.3966 8.84364 15.0494 9.14789 14.6227C11.704 11.048 13 8.36666 13 6.65333C12.9979 4.88929 12.3124 3.19812 11.0939 1.95082C9.87528 0.703516 8.2232 0.0019408 6.49999 0ZM6.49999 9.30534C5.98478 9.30534 5.48114 9.14889 5.05276 8.85591C4.62438 8.5629 4.2905 8.14642 4.09333 7.65915C3.89617 7.17188 3.84458 6.6357 3.9451 6.11842C4.04561 5.60114 4.29371 5.12599 4.65801 4.75304C5.02232 4.38011 5.48648 4.12613 5.99179 4.02324C6.4971 3.92034 7.02087 3.97315 7.49686 4.17498C7.97285 4.37682 8.3797 4.71861 8.66589 5.15714C8.95218 5.59567 9.10491 6.11125 9.10491 6.63866C9.10491 7.34591 8.83053 8.02418 8.34193 8.52428C7.85345 9.02436 7.19086 9.30534 6.49999 9.30534Z" stroke="#668DBB" stroke-width="2.6" mask="url(#path-1-inside-1_40_104)"/>
</svg>
