<svg width="41" height="41" viewBox="0 0 41 41" fill="none" xmlns="http://www.w3.org/2000/svg">
<path d="M20.5 0C12.3124 0 5.65137 6.66106 5.65137 14.8486C5.65137 25.0095 18.9395 39.9264 19.5052 40.5564C20.0366 41.1483 20.9644 41.1473 21.4948 40.5564C22.0606 39.9264 35.3487 25.0095 35.3487 14.8486C35.3485 6.66106 28.6875 0 20.5 0ZM20.5 22.3193C16.3806 22.3193 13.0294 18.9679 13.0294 14.8486C13.0294 10.7292 16.3807 7.37792 20.5 7.37792C24.6193 7.37792 27.9706 10.7293 27.9706 14.8486C27.9706 18.968 24.6193 22.3193 20.5 22.3193Z" fill="#00418D"/>
</svg>
