<svg width="16" height="16" viewBox="0 0 16 16" fill="none" xmlns="http://www.w3.org/2000/svg">
<g clip-path="url(#clip0_190_8052)">
<path d="M15.3333 7.33398H0.666666C0.298477 7.33398 0 7.63246 0 8.00065C0 8.36884 0.298477 8.66731 0.666666 8.66731H15.3333C15.7015 8.66731 16 8.36884 16 8.00065C16 7.63246 15.7015 7.33398 15.3333 7.33398Z" fill="#00418D"/>
<path d="M15.3333 2.66602H0.666666C0.298477 2.66602 0 2.96449 0 3.33268C0 3.70087 0.298477 3.99935 0.666666 3.99935H15.3333C15.7015 3.99935 16 3.70087 16 3.33268C16 2.96449 15.7015 2.66602 15.3333 2.66602Z" fill="#00418D"/>
<path d="M15.3333 12H0.666666C0.298477 12 0 12.2985 0 12.6667C0 13.0349 0.298477 13.3333 0.666666 13.3333H15.3333C15.7015 13.3333 16 13.0349 16 12.6667C16 12.2985 15.7015 12 15.3333 12Z" fill="#00418D"/>
</g>
<defs>
<clipPath id="clip0_190_8052">
<rect width="16" height="16" fill="white"/>
</clipPath>
</defs>
</svg>
