<svg width="120" height="120" viewBox="0 0 120 120" fill="none" xmlns="http://www.w3.org/2000/svg">
<g filter="url(#filter0_ii_647_4)">
<rect width="120" height="120" rx="60" fill="#F3F6FB"/>
</g>
<path d="M71.7013 80.5695C71.5864 80.4682 71.4522 80.3901 71.3064 80.3395C71.1606 80.289 71.0061 80.2671 70.8516 80.275C70.6972 80.283 70.5458 80.3206 70.4063 80.3858C70.2667 80.451 70.1416 80.5424 70.0381 80.655L68.1803 82.6751C67.9792 82.9034 67.8774 83.1998 67.8969 83.5006C67.9163 83.8015 68.0555 84.0829 68.2844 84.2845C68.5134 84.4861 68.8139 84.592 69.1216 84.5793C69.4293 84.5666 69.7197 84.4364 69.9305 84.2166L71.7886 82.1964C71.9973 81.9693 72.1054 81.6704 72.089 81.3653C72.0726 81.0602 71.9332 80.774 71.7013 80.5695Z" fill="#668DBB"/>
<path d="M77.2762 74.509C77.1613 74.4077 77.0271 74.3295 76.8813 74.279C76.7355 74.2285 76.5809 74.2065 76.4265 74.2145C76.272 74.2224 76.1207 74.26 75.9811 74.3252C75.8415 74.3904 75.7164 74.4819 75.613 74.5944L72.8258 77.6246C72.7223 77.7371 72.6425 77.8684 72.5909 78.0111C72.5393 78.1538 72.5169 78.305 72.5251 78.4562C72.5332 78.6073 72.5716 78.7554 72.6382 78.892C72.7048 79.0286 72.7982 79.151 72.9132 79.2523C73.0281 79.3536 73.1623 79.4317 73.308 79.4822C73.4538 79.5327 73.6083 79.5546 73.7628 79.5467C73.9172 79.5387 74.0685 79.5011 74.2081 79.4359C74.3476 79.3707 74.4727 79.2793 74.5762 79.1668L77.3632 76.1366C77.5721 75.9095 77.6804 75.6104 77.6641 75.3052C77.6478 74.9999 77.5082 74.7135 77.2762 74.509Z" fill="#668DBB"/>
<path d="M65.4968 80.3131C65.381 80.2128 65.2462 80.1357 65.1 80.0864C64.9538 80.0371 64.7991 80.0164 64.6448 80.0256C64.4904 80.0347 64.3394 80.0736 64.2004 80.1399C64.0614 80.2062 63.9371 80.2986 63.8346 80.4119L61.0586 83.4804C60.9545 83.5935 60.8743 83.7256 60.8227 83.8692C60.7711 84.0127 60.749 84.1648 60.7577 84.3168C60.7665 84.4687 60.8059 84.6175 60.8737 84.7544C60.9415 84.8914 61.0363 85.0139 61.1527 85.1147C61.2691 85.2156 61.4048 85.293 61.5519 85.3423C61.699 85.3916 61.8546 85.4119 62.0098 85.402C62.165 85.3921 62.3166 85.3523 62.4559 85.2847C62.5953 85.2172 62.7196 85.1233 62.8216 85.0085L65.5976 81.94C65.7001 81.8267 65.7789 81.6947 65.8293 81.5516C65.8797 81.4086 65.9008 81.2572 65.8915 81.1061C65.8821 80.955 65.8424 80.8072 65.7747 80.6712C65.707 80.5351 65.6126 80.4134 65.4968 80.3131Z" fill="#668DBB"/>
<path d="M69.2986 77.851L73.0001 73.7604C73.1026 73.6471 73.1813 73.5151 73.2317 73.372C73.2822 73.2289 73.3033 73.0775 73.2939 72.9265C73.2846 72.7754 73.2449 72.6276 73.1772 72.4915C73.1095 72.3555 73.015 72.2338 72.8993 72.1335C72.7835 72.0331 72.6487 71.9561 72.5025 71.9067C72.3563 71.8574 72.2016 71.8367 72.0473 71.8459C71.8929 71.855 71.7419 71.8939 71.6029 71.9601C71.4639 72.0264 71.3396 72.1188 71.2371 72.2321L67.5357 76.3228C67.4315 76.4358 67.3512 76.5679 67.2995 76.7115C67.2477 76.8551 67.2256 77.0073 67.2343 77.1593C67.243 77.3113 67.2823 77.4601 67.3501 77.5971C67.4179 77.7342 67.5128 77.8567 67.6292 77.9576C67.7457 78.0586 67.8814 78.1359 68.0285 78.1852C68.1757 78.2345 68.3314 78.2548 68.4866 78.2449C68.6418 78.235 68.7935 78.1951 68.9329 78.1275C69.0722 78.0599 69.1965 77.9659 69.2986 77.851Z" fill="#668DBB"/>
<path d="M94.8529 59.2939C94.9731 59.0811 95.0215 58.8366 94.9912 58.5952C94.9608 58.3539 94.8533 58.1281 94.6839 57.9502C94.6619 57.9273 94.6388 57.9063 94.6156 57.8854C94.5591 57.6378 94.4958 57.3903 94.4233 57.1432C93.8818 55.2832 92.9107 53.5698 91.5851 52.1355C91.5537 51.8953 91.4458 51.6708 91.2767 51.4941C91.1076 51.3173 90.8859 51.1971 90.6431 51.1507C90.6125 51.1449 90.582 51.1414 90.5515 51.138C88.8702 49.6863 86.8347 48.6836 84.6418 48.2269C84.4719 48.0515 84.25 47.9327 84.0074 47.8875C83.7648 47.8422 83.5139 47.8728 83.29 47.9748C83.2632 47.9871 83.2377 48.0012 83.2123 48.015C80.9819 47.8077 78.7347 48.1689 76.6892 49.0635C76.445 49.0169 76.192 49.0471 75.9665 49.1499C75.741 49.2527 75.5546 49.4228 75.4339 49.6357C75.4185 49.6631 75.4052 49.6909 75.3923 49.7188C74.5442 50.2074 73.7561 50.7894 73.0433 51.4535L68.8319 48.7595L69.9064 48.0392C71.1828 47.1835 72.6649 46.668 74.2068 46.5437C75.4214 46.4474 76.5928 46.0585 77.6166 45.4116C78.6404 44.7647 79.4847 43.8799 80.0744 42.8361C80.1676 42.6713 80.2182 42.4867 80.2217 42.2983C80.2252 42.11 80.1814 41.9237 80.0943 41.7557C80.0071 41.5877 79.8792 41.4432 79.7218 41.3348C79.5644 41.2265 79.3822 41.1575 79.1912 41.134L73.8455 40.4731C71.2798 40.1584 68.6815 40.7163 66.486 42.0533L62.3206 44.5953L57.7901 41.696C57.0703 41.2349 56.1941 41.0694 55.3506 41.235C55.2461 41.1146 55.1173 41.0165 54.9723 40.947C54.8273 40.8775 54.6692 40.838 54.508 40.8309L40.2159 40.2361L39.9722 39.888L43.7209 37.7666C43.868 37.6833 43.9949 37.57 44.093 37.4342C44.191 37.2985 44.2579 37.1436 44.2891 36.9801L45.0387 33.0464L49.0578 33.7801C49.2552 33.8161 49.4586 33.8022 49.6489 33.7396C49.8392 33.677 50.0099 33.5678 50.145 33.4225C50.28 33.2771 50.3748 33.1004 50.4205 32.9091C50.4661 32.7178 50.461 32.5182 50.4057 32.3294L49.7566 30.1137C49.7139 29.9682 49.6424 29.8324 49.5462 29.7139C49.4499 29.5955 49.3307 29.4967 49.1955 29.4234L42.7387 25.9212C41.8808 25.4527 40.9364 25.1555 39.9602 25.0467C38.9841 24.9379 37.9956 25.0197 37.052 25.2873C35.4981 25.7269 34.1304 26.6448 33.1514 27.9049L30.865 30.8601C30.6987 31.0752 30.6147 31.3406 30.6278 31.6101C30.6408 31.8796 30.75 32.1361 30.9364 32.3348L31.7146 33.1641C30.8151 33.4655 30.0006 33.9697 29.3368 34.6358C28.101 35.8704 27.1277 37.3326 26.4732 38.9378C25.8187 40.543 25.496 42.2594 25.5237 43.9875L26.2183 54.3023C26.6003 55.6114 27.3942 56.7694 28.487 57.6117C29.5798 58.454 30.916 58.9378 32.3058 58.9944L38.5269 59.2537L25.5882 65.7076C25.4077 65.8096 25.2583 65.9568 25.1549 66.1339C25.0516 66.311 24.9982 66.5118 25 66.7157C25.0019 66.9197 25.0591 67.1195 25.1657 67.2948C25.2722 67.47 25.4244 67.6145 25.6067 67.7133L28.5196 69.2937C28.6548 69.3671 28.8035 69.4137 28.9572 69.4308C29.1108 69.4479 29.2664 69.4353 29.4151 69.3935L33.0754 68.3662L34.5954 69.7554C34.744 69.8913 34.926 69.9871 35.1237 70.0336C35.3214 70.0802 35.5281 70.0758 35.7236 70.0209L41.1158 68.5083L46.0193 69.4033C46.0274 69.4048 46.0355 69.4052 46.0436 69.4065L46.281 70.0195C44.5434 69.5945 42.7343 69.5294 40.9695 69.8285C40.7446 69.7237 40.4916 69.6914 40.2468 69.7362C40.002 69.781 39.778 69.9007 39.607 70.078C39.5842 70.1016 39.5628 70.1262 39.5431 70.1512C39.2944 70.2222 39.0465 70.298 38.8008 70.384C36.9385 71.0316 35.2531 72.0895 33.8749 73.476C33.632 73.5221 33.4101 73.6419 33.2407 73.8185C33.0714 73.995 32.9631 74.2193 32.9314 74.4595C32.9274 74.4897 32.9258 74.5197 32.9242 74.5497C31.5514 76.2848 30.6592 78.3371 30.3337 80.5084C30.1657 80.6855 30.0589 80.9097 30.0283 81.1495C29.9976 81.3893 30.0448 81.6324 30.1631 81.8445C30.1769 81.8693 30.1937 81.8915 30.209 81.9147C30.1387 84.1072 30.6509 86.2799 31.6956 88.2206C31.6631 88.4623 31.7098 88.708 31.829 88.9221C31.9482 89.1362 32.1337 89.3078 32.3588 89.4123C32.3883 89.4257 32.4177 89.4363 32.4464 89.4471C33.7044 91.2556 35.4193 92.7145 37.4242 93.6818C37.542 93.8982 37.7273 94.0721 37.9532 94.1781C38.179 94.2841 38.4336 94.3167 38.6797 94.2712C38.7143 94.2647 38.748 94.2568 38.7814 94.2471C40.8844 94.9922 43.1494 95.1886 45.3535 94.8169C45.5779 94.9207 45.8302 94.9523 46.0741 94.9072C46.318 94.8621 46.541 94.7426 46.7112 94.5658C46.734 94.5422 46.7554 94.5174 46.7752 94.4923C47.0233 94.4216 47.271 94.346 47.5175 94.2598C49.3791 93.6119 51.0637 92.5541 52.4414 91.1679C52.6846 91.1219 52.9068 91.002 53.0763 90.8253C53.2459 90.6486 53.3542 90.424 53.3858 90.1836C53.3898 90.1533 53.3914 90.1232 53.393 90.0932C54.7657 88.3582 55.658 86.3059 55.9835 84.1347C56.1515 83.9576 56.2584 83.7333 56.289 83.4935C56.3196 83.2536 56.2724 83.0105 56.1541 82.7984C56.1394 82.7729 56.1247 82.7491 56.1082 82.7252C56.1592 81.1362 55.904 79.5521 55.3559 78.0556C55.1502 77.4954 54.9049 76.95 54.6217 76.4232C54.6543 76.1814 54.6076 75.9356 54.4884 75.7214C54.3693 75.5072 54.1837 75.3355 53.9585 75.2311C53.9299 75.218 53.9011 75.207 53.8722 75.1964C53.7399 75.0056 53.6022 74.8183 53.4592 74.6345L57.5615 73.4833C57.7373 73.4339 57.8988 73.3451 58.0334 73.224L67.7296 64.5082C67.9384 64.3206 68.071 64.0655 68.103 63.7899C68.1351 63.5142 68.0645 63.2365 67.9042 63.0077L63.9372 57.344L64.33 53.5601L69.5885 56.9247C69.0715 58.5597 68.9023 60.2811 69.0916 61.9825C68.9717 62.1953 68.9236 62.4396 68.9541 62.6807C68.9845 62.9217 69.0921 63.1472 69.2613 63.3249C69.2836 63.3484 69.3073 63.3696 69.3312 63.3909C69.3879 63.6385 69.4497 63.8857 69.5217 64.1318C70.0634 65.9919 71.0345 67.7052 72.36 69.1397C72.3915 69.38 72.4995 69.6044 72.6688 69.7812C72.838 69.958 73.0599 70.078 73.3028 70.1244C73.3335 70.1303 73.364 70.134 73.3946 70.1375C75.0762 71.5892 77.112 72.5915 79.3053 73.0475C79.4746 73.2234 79.6963 73.3425 79.9388 73.3878C80.1813 73.4331 80.4322 73.4023 80.6558 73.2998C80.6806 73.2885 80.704 73.2754 80.7277 73.2626C81.1347 73.301 81.5433 73.3202 81.9537 73.3202C83.7824 73.3184 85.5903 72.9405 87.2603 72.2112C87.5038 72.2598 87.7568 72.2305 87.9821 72.1277C88.2073 72.0249 88.3929 71.854 88.5114 71.6402C88.5261 71.6137 88.539 71.5867 88.5517 71.5597C90.476 70.4461 92.073 68.8639 93.1873 66.9671C93.4157 66.8657 93.6051 66.6956 93.7278 66.4815C93.8505 66.2674 93.9002 66.0205 93.8696 65.7769C93.8654 65.7427 93.8589 65.7093 93.8518 65.676C94.7447 63.6694 95.0896 61.4702 94.8529 59.2939ZM67.732 44.0089C69.4677 42.9521 71.5217 42.5111 73.5501 42.7596L76.7813 43.1591C75.9918 43.7864 75.0268 44.1652 74.0133 44.2456C72.0629 44.403 70.1881 45.055 68.5736 46.1374L66.6992 47.3952L64.4941 45.9846L67.732 44.0089ZM77.602 57.1242L77.611 57.13L81.6026 59.6835C81.7124 59.7544 81.8056 59.8473 81.8761 59.956C81.9465 60.0648 81.9926 60.1869 82.0112 60.3144C82.0299 60.4419 82.0207 60.5717 81.9842 60.6955C81.9478 60.8192 81.8849 60.934 81.7999 61.0322C81.6521 61.202 81.4458 61.3129 81.2202 61.344C80.9945 61.375 80.765 61.3241 80.5751 61.2007L56.495 45.794C56.6166 45.5427 56.641 45.2568 56.5634 44.9893L56.1235 43.488C56.2583 43.5062 56.3873 43.5533 56.5015 43.6259L77.602 57.1242ZM84.3433 59.9879C84.277 59.5369 84.1137 59.1048 83.8642 58.7202C83.6147 58.3356 83.2846 58.0071 82.8958 57.7566L80.5383 56.2486C80.5838 56.2342 80.629 56.2198 80.675 56.2067C81.5681 55.9558 82.5171 55.9691 83.4025 56.2449C84.2878 56.5206 85.0701 57.0465 85.6509 57.7564C86.2316 58.4663 86.5849 59.3284 86.6662 60.2343C86.7475 61.1402 86.5533 62.0494 86.1079 62.8476C85.6625 63.6457 84.9859 64.297 84.1632 64.7197C83.3405 65.1423 82.4085 65.3174 81.4844 65.2228C80.5603 65.1282 79.6854 64.7682 78.9699 64.1882C78.2543 63.6081 77.73 62.8338 77.4629 61.9628L79.2834 63.1276C79.8117 63.4684 80.4294 63.6527 81.0621 63.6583C81.6949 63.6638 82.3159 63.4903 82.8503 63.1587C83.3848 62.827 83.81 62.3514 84.0748 61.7889C84.3397 61.2264 84.4329 60.601 84.3433 59.9879ZM47.4163 84.2939C47.0848 84.9791 46.5858 85.5737 45.9635 86.0251C45.3412 86.4765 44.6148 86.7707 43.8485 86.8816C43.0823 86.9926 42.3 86.9169 41.5708 86.6612C40.8416 86.4055 40.1881 85.9778 39.6681 85.4159C39.1481 84.854 38.7778 84.1752 38.5899 83.4398C38.4019 82.7043 38.4022 81.9348 38.5907 81.1995C38.7792 80.4642 39.1501 79.7857 39.6704 79.2242C40.1908 78.6626 40.8446 78.2354 41.574 77.9802C41.7413 77.9226 41.9118 77.8742 42.0846 77.8353L40.7062 79.6172C40.1952 80.2782 39.9621 81.1056 40.0547 81.9295C40.1473 82.7534 40.5587 83.5114 41.2043 84.0478C41.7993 84.5459 42.5568 84.8192 43.3397 84.8184C43.4554 84.8184 43.571 84.8126 43.686 84.801C44.1307 84.758 44.5616 84.6267 44.9526 84.415C45.3436 84.2034 45.6864 83.916 45.96 83.5703L47.7557 81.3184C47.9868 82.3194 47.8672 83.3674 47.4163 84.2939ZM48.213 75.0076C48.2918 75.2103 48.4276 75.3871 48.6047 75.5175C48.7818 75.6478 48.993 75.7265 49.2139 75.7444L44.1033 82.1515C43.9473 82.3455 43.7193 82.4715 43.469 82.5021C43.2187 82.5327 42.9661 82.4654 42.7661 82.3149C42.5661 82.1644 42.4348 81.9429 42.4006 81.6982C42.3664 81.4536 42.4322 81.2056 42.5836 81.0081L47.8834 74.1568L48.213 75.0076ZM50.0311 73.1989L45.8413 62.3852L49.1384 61.4597L51.0858 68.1069C51.1461 68.3126 51.2637 68.4979 51.4255 68.6419C51.5873 68.7859 51.7868 68.8829 52.0018 68.9222L53.665 69.2257C54.2459 69.3346 54.7802 69.6113 55.1989 70.0202C55.6176 70.4291 55.9015 70.9514 56.014 71.5197L50.0311 73.1989ZM45.5322 51.7645L36.2773 50.0749L36.4199 46.7947C37.3527 47.4281 38.461 47.7673 39.5963 47.7668C39.7102 47.7668 48.1676 47.2682 48.1676 47.2682L52.0028 48.4653C52.1736 48.5187 52.3547 48.5331 52.5321 48.5076C52.7095 48.4821 52.8786 48.4172 53.0265 48.318L54.5445 47.2993L54.9485 47.5579L48.2376 53.0621C47.4743 52.3951 46.5385 51.9462 45.5322 51.7645ZM42.8307 60.8325L39.0026 61.9068L38.7922 61.6826L42.5646 59.925L42.8307 60.8325ZM54.0973 66.9599L53.1498 66.787L51.403 60.8246L55.195 59.7604L61.4295 67.0422L58.0261 70.1016C57.6901 69.2993 57.1548 68.5918 56.4688 68.0432C55.7827 67.4946 54.9677 67.1222 54.0974 66.9599H54.0973ZM54.699 57.5015L50.7543 58.6088L49.6669 54.8973L57.0087 48.8755L57.6727 49.3003L54.699 57.5015ZM54.0661 44.8258L52.1704 46.0981L50.0427 45.4338L51.4155 43.0099L53.5608 43.0992L54.0661 44.8258ZM48.7841 42.9004L47.5992 44.9927L39.7972 45.4559C39.2592 45.4888 38.7214 45.3892 38.2329 45.1663C37.7444 44.9434 37.3207 44.6043 37.0006 44.1799L33.8084 39.9671C33.6035 39.6978 33.5081 39.3637 33.5407 39.0295C33.5734 38.6953 33.7317 38.3848 33.985 38.1584C34.2382 37.9278 34.5714 37.7998 34.9173 37.8003C34.9715 37.8002 35.0257 37.8032 35.0796 37.8092C35.2774 37.83 35.4682 37.8928 35.6387 37.9932C35.8092 38.0936 35.9552 38.2292 36.0667 38.3905L38.6058 42.0151C38.7092 42.1627 38.8462 42.2846 39.0061 42.3714C39.166 42.4581 39.3443 42.5072 39.5269 42.5149L48.7841 42.9004ZM42.3453 34.6058L41.1762 33.635L41.3465 32.7418L42.6899 32.7977L42.3453 34.6058ZM35.0285 29.2961C35.6995 28.4327 36.6369 27.8038 37.7018 27.5027C38.3483 27.3194 39.0255 27.2634 39.6943 27.338C40.363 27.4126 41.01 27.6163 41.5977 27.9374L47.5334 31.1576L40.4268 30.3963C40.1438 30.3847 39.8659 30.4734 39.6442 30.6461C39.4225 30.8187 39.2718 31.0639 39.2199 31.3365L38.7371 33.8698C38.699 34.0696 38.7156 34.2756 38.7851 34.4671C38.8546 34.6586 38.9746 34.8286 39.1329 34.9601L41.0963 36.5903L39.1575 37.6875L33.3357 31.4849L35.0285 29.2961ZM31.0235 36.2444C31.6978 35.5693 32.6135 35.1767 33.5777 35.1495L34.0073 35.6081C33.4111 35.755 32.8611 36.0435 32.4059 36.448C31.9508 36.8526 31.6046 37.3607 31.3979 37.9275C31.1912 38.4943 31.1305 39.1021 31.2211 39.6973C31.3117 40.2925 31.5508 40.8567 31.9173 41.3399L34.1704 44.3151L33.9229 50.0146L27.9698 50.82L27.8787 43.9575C27.8558 42.5322 28.1219 41.1166 28.6617 39.7926C29.2015 38.4687 30.0043 37.2627 31.0235 36.2444ZM28.482 53.6674L28.3159 53.1001L35.0296 52.1925L45.1007 54.0306C45.6926 54.1366 46.2423 54.4028 46.6875 54.7991C47.1327 55.1953 47.4556 55.7057 47.6195 56.2724L48.4903 59.2444L45.0945 60.1975L44.4454 57.9817C44.3773 57.7492 44.2361 57.5435 44.0419 57.3939C43.8478 57.2443 43.6105 57.1582 43.3636 57.148L32.4059 56.6916C31.5101 56.6551 30.6488 56.3433 29.9444 55.8004C29.24 55.2575 28.7283 54.5112 28.482 53.6674ZM29.2342 67.0463L28.5667 66.6842L30.214 65.7519L31.0677 66.5317L29.2342 67.0463ZM41.2742 66.1917C41.0945 66.1589 40.9094 66.1674 40.7337 66.2168L35.7146 67.6253L32.4471 64.6396L36.5684 62.7194L37.7607 63.9905C37.9085 64.1483 38.0984 64.2627 38.3091 64.3207C38.5197 64.3787 38.7426 64.378 38.9529 64.3188L43.5709 63.0222L45.0667 66.8831L41.2742 66.1917ZM46.7258 92.0888C46.4816 92.1742 46.2361 92.2473 45.9898 92.314L44.2412 90.699C44.1288 90.5951 43.9965 90.514 43.852 90.4601C43.7074 90.4063 43.5535 90.3809 43.3989 90.3853C43.2443 90.3896 43.0922 90.4238 42.9511 90.4858C42.81 90.5477 42.6827 90.6363 42.5766 90.7463C42.4705 90.8564 42.3875 90.9859 42.3325 91.1274C42.2775 91.2688 42.2515 91.4195 42.256 91.5708C42.2605 91.7221 42.2954 91.871 42.3587 92.0091C42.422 92.1472 42.5125 92.2717 42.625 92.3756L42.9657 92.6903C41.7633 92.6668 40.5737 92.4433 39.4479 92.0293L39.004 89.7214C38.9462 89.421 38.7688 89.1554 38.5109 88.983C38.2531 88.8106 37.9358 88.7455 37.6289 88.8021C37.3219 88.8587 37.0506 89.0322 36.8744 89.2846C36.6983 89.537 36.6318 89.8476 36.6896 90.148L36.7745 90.5936C35.8151 89.8873 34.9861 89.0258 34.3231 88.0463L35.3534 85.9175C35.4196 85.7807 35.4576 85.6325 35.4652 85.4813C35.4729 85.3301 35.45 85.179 35.398 85.0364C35.346 84.8939 35.2658 84.7628 35.162 84.6506C35.0582 84.5385 34.9328 84.4474 34.793 84.3826C34.6533 84.3178 34.5019 84.2807 34.3474 84.2732C34.193 84.2657 34.0385 84.288 33.8929 84.339C33.7473 84.3899 33.6134 84.4684 33.4987 84.57C33.3841 84.6716 33.2911 84.7943 33.2249 84.9311L33.0238 85.3467C32.6721 84.221 32.5202 83.0447 32.5746 81.8687L34.6844 80.7397C34.9585 80.5931 35.1618 80.346 35.2496 80.0526C35.3375 79.7593 35.3027 79.4439 35.1529 79.1756C35.0031 78.9074 34.7506 78.7084 34.4509 78.6224C34.1512 78.5364 33.8289 78.5705 33.5549 78.7171L33.1503 78.9332C33.5435 77.8233 34.1251 76.7862 34.8706 75.8655L37.253 76.1656C37.5624 76.204 37.8748 76.1207 38.1215 75.9339C38.3682 75.7471 38.5291 75.4722 38.5689 75.1694C38.6088 74.8666 38.5242 74.5608 38.3339 74.3189C38.1436 74.0771 37.863 73.9191 37.5537 73.8795L37.0887 73.821C37.8619 73.2908 38.7042 72.8644 39.5932 72.5532C39.8363 72.4683 40.082 72.3948 40.3291 72.3279L42.0782 73.943C42.1903 74.0484 42.3227 74.1311 42.4677 74.1861C42.6126 74.2412 42.7673 74.2676 42.9228 74.2639C43.0782 74.2601 43.2314 74.2263 43.3734 74.1643C43.5154 74.1023 43.6435 74.0134 43.7502 73.9027C43.8569 73.792 43.9402 73.6617 43.9952 73.5193C44.0502 73.3769 44.0758 73.2253 44.0706 73.0732C44.0654 72.9211 44.0295 72.7715 43.9649 72.633C43.9003 72.4946 43.8083 72.37 43.6943 72.2666L43.351 71.9496C44.3452 71.9672 45.3317 72.1224 46.2814 72.4106L43.9327 75.4469C42.3641 75.2748 40.7816 75.6201 39.4363 76.428C38.0909 77.236 37.0596 78.4605 36.5058 79.9072C35.9521 81.3539 35.9076 82.9402 36.3794 84.4145C36.8512 85.8888 37.8124 87.1667 39.1105 88.0457C40.4085 88.9247 41.9692 89.3545 43.5452 89.2669C45.1211 89.1792 46.622 88.5792 47.81 87.562C48.998 86.5447 49.805 85.1684 50.1032 83.6513C50.4014 82.1342 50.1736 80.5631 49.456 79.187L51.7757 76.2781C51.8518 76.3821 51.9245 76.4884 51.9965 76.5951L50.9661 78.725C50.8987 78.862 50.8597 79.0106 50.8512 79.1624C50.8428 79.3142 50.8651 79.4661 50.9168 79.6094C50.9686 79.7527 51.0488 79.8846 51.1529 79.9974C51.2569 80.1102 51.3828 80.2018 51.5231 80.2669C51.6635 80.3319 51.8156 80.3691 51.9708 80.3764C52.1259 80.3836 52.281 80.3608 52.427 80.3091C52.5731 80.2575 52.7073 80.1781 52.8219 80.0755C52.9364 79.9729 53.0291 79.8491 53.0946 79.7113L53.2959 79.2951C53.6491 80.4195 53.8034 81.5947 53.7521 82.77L51.6353 83.9027C51.4995 83.9753 51.3797 84.0732 51.2827 84.1911C51.1856 84.3089 51.1133 84.4443 51.0697 84.5895C51.0261 84.7347 51.0122 84.8869 51.0287 85.0374C51.0452 85.1879 51.0918 85.3337 51.1659 85.4665C51.24 85.5994 51.3401 85.7166 51.4605 85.8116C51.5808 85.9066 51.7192 85.9775 51.8675 86.0201C52.0159 86.0628 52.1714 86.0764 52.3251 86.0603C52.4789 86.0441 52.6279 85.9985 52.7636 85.926L53.1757 85.7054C53.049 86.0644 52.9026 86.4165 52.7371 86.7601C52.3893 87.4783 51.959 88.1553 51.4544 88.778L49.0652 88.477C48.9117 88.4574 48.7557 88.4675 48.6062 88.507C48.4567 88.5464 48.3166 88.6143 48.194 88.7068C48.0713 88.7992 47.9685 88.9145 47.8914 89.0459C47.8143 89.1773 47.7645 89.3223 47.7447 89.4726C47.7249 89.6229 47.7356 89.7756 47.7762 89.9218C47.8168 90.068 47.8864 90.205 47.9811 90.3249C48.0759 90.4448 48.1938 90.5452 48.3282 90.6204C48.4626 90.6956 48.6109 90.7441 48.7645 90.7631L49.234 90.8223C48.4589 91.3516 47.6153 91.7775 46.7253 92.0888H46.7258ZM61.751 58.2994L65.3846 63.4868L63.1655 65.4812L56.9405 58.2106L59.7003 50.5985L62.1098 52.1399L61.5505 57.531C61.5223 57.8023 61.5934 58.0746 61.751 58.2994ZM87.2441 69.6344L85.1393 68.4924C84.8661 68.3442 84.544 68.3083 84.2438 68.3926C83.9436 68.4768 83.6899 68.6743 83.5385 68.9417C83.3871 69.209 83.3504 69.5243 83.4365 69.8181C83.5226 70.1119 83.7244 70.3602 83.9975 70.5084L84.4097 70.7317C83.2406 71.0046 82.0324 71.08 80.8374 70.9547L79.8178 68.8145C79.7537 68.6755 79.662 68.5503 79.5481 68.4462C79.4342 68.3421 79.3002 68.2612 79.1541 68.2081C79.008 68.1551 78.8526 68.1309 78.6968 68.1371C78.5411 68.1433 78.3882 68.1797 78.2469 68.2441C78.1057 68.3086 77.9789 68.3999 77.874 68.5127C77.769 68.6254 77.688 68.7575 77.6356 68.9011C77.5832 69.0448 77.5605 69.1972 77.5687 69.3496C77.5769 69.5019 77.616 69.6511 77.6836 69.7886L77.8821 70.2055C77.5241 70.0588 77.1745 69.8932 76.8347 69.7096C76.1246 69.324 75.4618 68.8603 74.8592 68.3276L75.3188 66.0133C75.3486 65.8646 75.3482 65.7116 75.3175 65.5631C75.2869 65.4146 75.2266 65.2734 75.1401 65.1478C75.0537 65.0221 74.9427 64.9143 74.8137 64.8306C74.6846 64.7469 74.54 64.689 74.388 64.6601C74.2361 64.6312 74.0798 64.6319 73.9281 64.6621C73.7764 64.6924 73.6323 64.7517 73.5041 64.8365C73.3758 64.9213 73.2659 65.0301 73.1806 65.1565C73.0953 65.283 73.0364 65.4247 73.0071 65.5734L72.9167 66.0282C72.4265 65.2373 72.0461 64.3859 71.7854 63.4966C71.7143 63.2539 71.6538 63.01 71.601 62.7654L73.3612 61.1587C73.4765 61.056 73.5698 60.932 73.6357 60.7937C73.7016 60.6555 73.7388 60.5059 73.7452 60.3535C73.7516 60.2011 73.727 60.0489 73.6729 59.9059C73.6187 59.7629 73.5361 59.6318 73.4298 59.5202C73.3235 59.4087 73.1957 59.3189 73.0536 59.2561C72.9116 59.1932 72.7583 59.1586 72.6025 59.1543C72.4467 59.1499 72.2916 59.1758 72.1461 59.2305C72.0007 59.2853 71.8678 59.3677 71.7551 59.4731L71.4051 59.7931C71.4492 59.2728 71.5338 58.7566 71.6582 58.2489L74.9149 60.3325C74.8734 61.2645 75.0248 62.1951 75.36 63.0684C75.6953 63.9417 76.2074 64.7396 76.8656 65.4143C77.5239 66.089 78.3147 66.6265 79.1905 66.9945C80.0664 67.3625 81.0092 67.5534 81.9623 67.5557C82.6246 67.5552 83.2835 67.464 83.92 67.2848C84.8917 67.0122 85.7923 66.5387 86.5611 65.8962C87.3298 65.2538 87.9488 64.4574 88.3761 63.5607C88.8035 62.6641 89.0293 61.6882 89.0382 60.6989C89.0472 59.7095 88.8392 58.7298 88.4282 57.8259C88.0172 56.922 87.4128 56.1149 86.6559 55.4592C85.8989 54.8035 85.007 54.3144 84.0404 54.0249C83.0738 53.7355 82.0549 53.6524 81.0527 53.7814C80.0505 53.9103 79.0882 54.2483 78.2308 54.7724L75.081 52.7571C75.5834 52.3359 76.1252 51.9618 76.6992 51.6399L78.8057 52.7827C79.0789 52.9309 79.401 52.9668 79.7012 52.8826C80.0014 52.7983 80.2551 52.6008 80.4065 52.3335C80.5579 52.0661 80.5946 51.7509 80.5085 51.4571C80.4224 51.1632 80.2206 50.9149 79.9475 50.7667L79.5354 50.5436C80.7044 50.2706 81.9125 50.1952 83.1075 50.3204L84.1272 52.4608C84.2611 52.7347 84.5001 52.9458 84.7922 53.0482C85.0843 53.1507 85.4058 53.1361 85.687 53.0078C85.9682 52.8794 86.1863 52.6477 86.2939 52.3628C86.4014 52.078 86.3898 51.7631 86.2614 51.4866L86.0629 51.0698C87.172 51.5233 88.1941 52.1582 89.0854 52.9475L88.6259 55.2619C88.5961 55.4106 88.5965 55.5636 88.6272 55.7121C88.6579 55.8606 88.7181 56.0017 88.8046 56.1274C88.8911 56.2531 89.002 56.3608 89.131 56.4445C89.2601 56.5282 89.4047 56.5862 89.5567 56.6151C89.7086 56.644 89.8649 56.6433 90.0166 56.613C90.1683 56.5828 90.3124 56.5235 90.4407 56.4387C90.5689 56.3538 90.6788 56.2451 90.7641 56.1186C90.8494 55.9922 90.9083 55.8505 90.9376 55.7017L91.0278 55.2469C91.5181 56.0379 91.8985 56.8893 92.1591 57.7785C92.2307 58.0226 92.2891 58.267 92.3417 58.5117L90.5833 60.1165C90.3594 60.326 90.2288 60.6135 90.2199 60.9166C90.211 61.2197 90.3245 61.514 90.5358 61.7357C90.7471 61.9575 91.0392 62.0888 91.3487 62.1012C91.6583 62.1136 91.9603 62.0061 92.1895 61.802L92.5321 61.4893C92.4314 62.6624 92.1275 63.8102 91.6334 64.8835L89.2517 65.1698C88.9417 65.207 88.6596 65.3633 88.4673 65.6041C88.2751 65.845 88.1884 66.1508 88.2265 66.4542C88.2645 66.7575 88.4242 67.0337 88.6703 67.2219C88.9164 67.4101 89.2288 67.4949 89.5387 67.4576L89.9983 67.4025C89.2169 68.2944 88.2857 69.0493 87.2447 69.6344H87.2441Z" fill="#668DBB"/>
<defs>
<filter id="filter0_ii_647_4" x="-4" y="-4" width="128" height="128" filterUnits="userSpaceOnUse" color-interpolation-filters="sRGB">
<feFlood flood-opacity="0" result="BackgroundImageFix"/>
<feBlend mode="normal" in="SourceGraphic" in2="BackgroundImageFix" result="shape"/>
<feColorMatrix in="SourceAlpha" type="matrix" values="0 0 0 0 0 0 0 0 0 0 0 0 0 0 0 0 0 0 127 0" result="hardAlpha"/>
<feOffset dx="4" dy="4"/>
<feGaussianBlur stdDeviation="2"/>
<feComposite in2="hardAlpha" operator="arithmetic" k2="-1" k3="1"/>
<feColorMatrix type="matrix" values="0 0 0 0 0.74902 0 0 0 0 0.811765 0 0 0 0 0.92549 0 0 0 0.64 0"/>
<feBlend mode="normal" in2="shape" result="effect1_innerShadow_647_4"/>
<feColorMatrix in="SourceAlpha" type="matrix" values="0 0 0 0 0 0 0 0 0 0 0 0 0 0 0 0 0 0 127 0" result="hardAlpha"/>
<feOffset dx="-4" dy="-4"/>
<feGaussianBlur stdDeviation="2"/>
<feComposite in2="hardAlpha" operator="arithmetic" k2="-1" k3="1"/>
<feColorMatrix type="matrix" values="0 0 0 0 0.74902 0 0 0 0 0.811765 0 0 0 0 0.92549 0 0 0 0.32 0"/>
<feBlend mode="normal" in2="effect1_innerShadow_647_4" result="effect2_innerShadow_647_4"/>
</filter>
</defs>
</svg>
