<svg width="16" height="16" viewBox="0 0 16 16" fill="none" xmlns="http://www.w3.org/2000/svg">
<path d="M12.667 0H9.33371C9.1569 0 8.98733 0.0702379 8.8623 0.195262C8.73728 0.320286 8.66704 0.489855 8.66704 0.666666C8.66704 0.843477 8.73728 1.01305 8.8623 1.13807C8.98733 1.26309 9.1569 1.33333 9.33371 1.33333H12.667C12.964 1.33448 13.2569 1.40286 13.5237 1.53333L0.195713 14.862C0.132039 14.9235 0.0812513 14.9971 0.046312 15.0784C0.0113727 15.1597 -0.00701812 15.2472 -0.00778733 15.3357C-0.00855654 15.4242 0.00831126 15.512 0.0418318 15.594C0.0753524 15.6759 0.124854 15.7503 0.18745 15.8129C0.250045 15.8755 0.324479 15.925 0.40641 15.9585C0.488341 15.9921 0.576127 16.0089 0.664647 16.0082C0.753166 16.0074 0.840646 15.989 0.921982 15.9541C1.00332 15.9191 1.07688 15.8683 1.13838 15.8047L14.467 2.47667C14.5975 2.74346 14.6659 3.03634 14.667 3.33333V6.66666C14.667 6.84347 14.7373 7.01304 14.8623 7.13807C14.9873 7.26309 15.1569 7.33333 15.3337 7.33333C15.5105 7.33333 15.6801 7.26309 15.8051 7.13807C15.9301 7.01304 16.0004 6.84347 16.0004 6.66666V3.33333C15.9993 2.4496 15.6478 1.60237 15.0229 0.97748C14.398 0.352588 13.5508 0.00105857 12.667 0V0Z" fill="#668DBB"/>
<path d="M3.99968 6.66732C4.52709 6.66732 5.04267 6.51092 5.4812 6.2179C5.91973 5.92489 6.26152 5.50841 6.46336 5.02114C6.66519 4.53387 6.718 3.99769 6.61511 3.48041C6.51221 2.96313 6.25824 2.48797 5.8853 2.11503C5.51236 1.74209 5.0372 1.48812 4.51992 1.38522C4.00263 1.28233 3.46646 1.33514 2.97919 1.53697C2.49192 1.73881 2.07544 2.0806 1.78242 2.51913C1.48941 2.95766 1.33301 3.47324 1.33301 4.00065C1.33301 4.7079 1.61396 5.38617 2.11406 5.88627C2.61415 6.38637 3.29243 6.66732 3.99968 6.66732ZM3.99968 2.66732C4.26339 2.66732 4.52117 2.74552 4.74044 2.89203C4.9597 3.03853 5.1306 3.24677 5.23152 3.49041C5.33243 3.73404 5.35884 4.00213 5.30739 4.26077C5.25594 4.51941 5.12896 4.75699 4.94249 4.94346C4.75602 5.12993 4.51844 5.25692 4.2598 5.30837C4.00116 5.35981 3.73307 5.33341 3.48943 5.23249C3.2458 5.13158 3.03756 4.96068 2.89105 4.74141C2.74454 4.52215 2.66634 4.26436 2.66634 4.00065C2.66634 3.64703 2.80682 3.30789 3.05687 3.05784C3.30692 2.80779 3.64605 2.66732 3.99968 2.66732Z" fill="#668DBB"/>
<path d="M11.9997 9.33398C11.4723 9.33398 10.9567 9.49038 10.5182 9.7834C10.0796 10.0764 9.73783 10.4929 9.536 10.9802C9.33416 11.4674 9.28135 12.0036 9.38425 12.5209C9.48714 13.0382 9.74112 13.5133 10.1141 13.8863C10.487 14.2592 10.9622 14.5132 11.4794 14.6161C11.9967 14.719 12.5329 14.6662 13.0202 14.4643C13.5074 14.2625 13.9239 13.9207 14.2169 13.4822C14.5099 13.0436 14.6663 12.5281 14.6663 12.0007C14.6663 11.2934 14.3854 10.6151 13.8853 10.115C13.3852 9.61494 12.7069 9.33398 11.9997 9.33398ZM11.9997 13.334C11.736 13.334 11.4782 13.2558 11.2589 13.1093C11.0396 12.9628 10.8688 12.7545 10.7678 12.5109C10.6669 12.2673 10.6405 11.9992 10.692 11.7405C10.7434 11.4819 10.8704 11.2443 11.0569 11.0578C11.2433 10.8714 11.4809 10.7444 11.7396 10.6929C11.9982 10.6415 12.2663 10.6679 12.5099 10.7688C12.7536 10.8697 12.9618 11.0406 13.1083 11.2599C13.2548 11.4792 13.333 11.7369 13.333 12.0007C13.333 12.3543 13.1925 12.6934 12.9425 12.9435C12.6924 13.1935 12.3533 13.334 11.9997 13.334Z" fill="#668DBB"/>
</svg>
