<svg width="10" height="9" viewBox="0 0 10 9" fill="none" xmlns="http://www.w3.org/2000/svg">
<path d="M8.99989 0.499879C8.87487 0.374898 8.70533 0.304688 8.52855 0.304688C8.35178 0.304688 8.18224 0.374898 8.05722 0.499879L4.99988 3.55722L1.94255 0.499879C1.81753 0.374898 1.64799 0.304688 1.47121 0.304688C1.29444 0.304688 1.1249 0.374898 0.999879 0.499879C0.874898 0.624897 0.804688 0.794436 0.804688 0.971212C0.804688 1.14799 0.874898 1.31753 0.999879 1.44255L4.05722 4.49988L0.999879 7.55722C0.874898 7.68224 0.804688 7.85178 0.804688 8.02855C0.804688 8.20533 0.874898 8.37487 0.999879 8.49989C1.1249 8.62487 1.29444 8.69508 1.47121 8.69508C1.64799 8.69508 1.81753 8.62487 1.94255 8.49989L4.99988 5.44255L8.05722 8.49989C8.18224 8.62487 8.35178 8.69508 8.52855 8.69508C8.70533 8.69508 8.87487 8.62487 8.99989 8.49989C9.12487 8.37487 9.19508 8.20533 9.19508 8.02855C9.19508 7.85178 9.12487 7.68224 8.99989 7.55722L5.94255 4.49988L8.99989 1.44255C9.12487 1.31753 9.19508 1.14799 9.19508 0.971212C9.19508 0.794436 9.12487 0.624897 8.99989 0.499879Z" fill="#00418D"/>
</svg>
