<svg width="325" height="235" viewBox="0 0 325 235" fill="none" xmlns="http://www.w3.org/2000/svg">
<path d="M69.7935 1.91529L306.381 81.0764C322.691 86.5335 329.396 110.857 321.271 135.142L299.943 198.882C291.818 223.167 271.824 238.557 255.515 233.1L63.3015 168.786C67.5613 170.339 70.4644 171.405 70.4644 171.405C45.6367 204.271 17.4578 199.099 4.09108 193.928C1.82377 193.042 2.47986 188.433 5.03718 187.033C19.2686 179.31 25.8328 161.11 27.2385 156.72L18.9556 153.948C2.6461 148.491 -4.05935 124.168 4.06627 99.8833L25.3841 36.1711C33.4812 11.8766 53.484 -3.54181 69.7935 1.91529Z" fill="#F3F6FB"/>
</svg>
