<svg width="126" height="545" viewBox="0 0 126 545" fill="none" xmlns="http://www.w3.org/2000/svg">
<path fill-rule="evenodd" clip-rule="evenodd" d="M-279.979 163.805C-279.979 166.525 -278.872 169.128 -276.911 171.013L109.067 542.187C115.421 548.297 125.999 543.794 125.999 534.979V504.406C125.999 501.687 124.891 499.084 122.93 497.199L-263.048 126.025C-269.402 119.915 -279.979 124.418 -279.979 133.233V163.805Z" fill="#CCD9F0"/>
<path fill-rule="evenodd" clip-rule="evenodd" d="M-317.999 41.588C-317.999 44.308 -316.891 46.9106 -314.93 48.7959L71.0515 419.973C77.4054 426.084 87.983 421.581 87.983 412.765V382.195C87.983 379.475 86.875 376.873 84.9145 374.987L-301.068 3.81003C-307.421 -2.30014 -317.999 2.20289 -317.999 11.018V41.588Z" fill="#668DBB"/>
</svg>
