<svg width="132" height="96" viewBox="0 0 132 96" fill="none" xmlns="http://www.w3.org/2000/svg">
<path d="M28.5008 94.6898L124.015 62.731C130.6 60.5279 133.307 50.7082 130.027 40.9039L121.416 15.1706C118.136 5.36636 110.064 -0.846799 103.48 1.35633L25.8798 27.3209C27.5996 26.6942 28.7716 26.2636 28.7716 26.2636C18.7482 12.9952 7.37188 15.083 1.97549 17.1707C1.06014 17.5283 1.32502 19.3892 2.35745 19.9544C8.10294 23.0725 10.753 30.4199 11.3205 32.1924L7.97658 33.3112C1.39214 35.5144 -1.31499 45.334 1.96547 55.1383L10.5719 80.8601C13.8408 90.6682 21.9163 96.8929 28.5008 94.6898Z" fill="#F3F6FB"/>
</svg>
