<svg width="132" height="96" viewBox="0 0 132 96" fill="none" xmlns="http://www.w3.org/2000/svg">
<path d="M103.486 94.681L7.97351 62.7231C1.38924 60.52 -1.31781 50.7006 1.96256 40.8966L10.5726 15.164C13.8529 5.35996 21.9244 -0.853045 28.5086 1.35002L106.107 27.3139C104.387 26.6872 103.215 26.2566 103.215 26.2566C113.238 12.9886 124.614 15.0763 130.01 17.164C130.926 17.5216 130.661 19.3824 129.628 19.9476C123.883 23.0656 121.233 30.4129 120.665 32.1853L124.009 33.3041C130.594 35.5072 133.301 45.3266 130.02 55.1306L121.414 80.8517C118.145 90.6595 110.07 96.8841 103.486 94.681Z" fill="#F3F6FB"/>
</svg>
