<?xml version="1.0" encoding="utf-8"?><svg viewBox="0 0 226 48" xmlns="http://www.w3.org/2000/svg" xmlns:xlink="http://www.w3.org/1999/xlink"><style>:root>svg{display:none}:root>svg:target{display:block}</style><svg fill="none" viewBox="0 0 226 48" id="css--Logo" xmlns="http://www.w3.org/2000/svg"><path d="M55.302 40.695L32.113 2.34c-1.878-3.127-6.404-3.114-8.272-.003L.697 40.696l-.001.003C-1.234 43.913 1.079 48 4.833 48h46.334c3.748 0 6.072-4.08 4.135-7.305zm-4.135 4.027H4.833c-1.2 0-1.94-1.305-1.326-2.334l23.145-38.36a1.544 1.544 0 012.65.004l23.189 38.353a1.542 1.542 0 01-1.324 2.337z" fill="#FF2B2B"/><path d="M31.972 24.621c-.944 0-1.712.768-1.712 1.71a1.713 1.713 0 003.424 0c0-.942-.768-1.71-1.712-1.71zm1.131-5.189v3.085c.88.261 1.632.818 2.142 1.556l2.937-.954a7.014 7.014 0 00-5.079-3.687zm5.782 5.848l-2.937.953.002.1c0 .908-.306 1.745-.821 2.416l1.813 2.494a6.963 6.963 0 001.943-5.964z" fill="#00418D"/><path d="M31.97 11.414H18.176a1.133 1.133 0 100 2.266h5.894a15.041 15.041 0 00-3.327 2.832h-7.708a1.134 1.134 0 100 2.266h6.067a14.816 14.816 0 00-2.06 7.553c0 3.206 1.017 6.178 2.745 8.612H16.57a1.133 1.133 0 100 2.266h5.197a15.023 15.023 0 002.303 1.774H13.151a1.134 1.134 0 100 2.266h18.82c8.232 0 14.93-6.692 14.93-14.918 0-8.225-6.698-14.917-14.93-14.917zm5.51 22.353c-.022.018-.042.035-.065.052a1.278 1.278 0 01-.077.051 9.218 9.218 0 01-5.367 1.716 9.217 9.217 0 01-5.367-1.716 1.387 1.387 0 01-.078-.051l-.064-.052a9.244 9.244 0 01-3.754-7.436c0-5.102 4.156-9.254 9.263-9.254s9.262 4.151 9.262 9.254a9.244 9.244 0 01-3.754 7.436z" fill="#00418D"/><path d="M25.758 23.12l2.936.953a3.998 3.998 0 012.142-1.557v-3.084a7.014 7.014 0 00-5.078 3.688zm7.536 6.96a3.967 3.967 0 01-2.65 0l-1.814 2.495c.945.475 2.01.744 3.139.744a6.956 6.956 0 003.139-.745l-1.814-2.494zm-5.303-3.747l.002-.1-2.937-.954a6.962 6.962 0 001.943 5.963l1.814-2.493a3.953 3.953 0 01-.822-2.416z" fill="#00418D"/><path d="M39.898 26.33c0 4.377-3.552 7.926-7.933 7.926-4.382 0-7.934-3.549-7.934-7.927s3.552-7.927 7.934-7.927c4.381 0 7.933 3.55 7.933 7.927z" fill="#fff"/><path fill-rule="evenodd" clip-rule="evenodd" d="M31.965 32.39a6.064 6.064 0 006.066-6.06 6.064 6.064 0 00-6.066-6.063 6.064 6.064 0 00-6.067 6.062 6.064 6.064 0 006.067 6.062zm0 1.866c4.381 0 7.933-3.549 7.933-7.927s-3.552-7.927-7.933-7.927c-4.382 0-7.934 3.55-7.934 7.927 0 4.378 3.552 7.927 7.934 7.927z" fill="#FF2A2A"/><path d="M30.098 24.27h1.186l.98 2.13.779-2.13h1.192l-1.613 3.814a2.28 2.28 0 01-.216.401c-.077.111-.161.2-.252.268a.86.86 0 01-.298.147 1.25 1.25 0 01-.353.047c-.09 0-.177-.007-.262-.022a2.214 2.214 0 01-.454-.123 1.924 1.924 0 01-.164-.068v-.8c.11.056.221.1.336.13.115.031.227.047.336.047a.45.45 0 00.282-.082c.071-.055.121-.152.15-.292l-1.63-3.467z" fill="#56567B"/><path d="M73.092 28.415c-.246.129-.5.249-.765.359a7.508 7.508 0 01-1.797.452c-.337.043-.7.065-1.09.065-.63 0-1.202-.074-1.717-.223a5.374 5.374 0 01-1.378-.603 4.934 4.934 0 01-1.046-.883 5.383 5.383 0 01-.729-1.056 5.28 5.28 0 01-.433-1.135A4.734 4.734 0 0164 24.293c0-.508.063-.991.188-1.451a5.054 5.054 0 011.37-2.341 5.14 5.14 0 011.112-.805 5.51 5.51 0 011.335-.516c.48-.12.988-.18 1.522-.18.26 0 .522.017.787.05.264.03.536.08.815.151.284.067.577.153.88.259.308.1.633.222.974.366v1.544a9.195 9.195 0 00-.909-.467 6.54 6.54 0 00-.858-.33 5.231 5.231 0 00-.845-.187 5.642 5.642 0 00-.858-.065c-.578 0-1.112.099-1.602.295-.49.191-.917.457-1.277.797a3.65 3.65 0 00-.837 1.214 3.843 3.843 0 00-.303 1.537c0 .56.098 1.074.296 1.543a3.5 3.5 0 00.83 1.2c.36.335.79.596 1.29.782.501.187 1.054.28 1.66.28a5.72 5.72 0 001.761-.287 7.409 7.409 0 001.76-.847v1.58zm10.606-9.286v10.033h-1.443v-8.74h-5.65v8.74h-1.443V19.129h8.536zm8.255 0v1.293H87.68v3.03h4.127v1.3H87.68v3.117h4.409v1.293h-5.852V19.129h5.715zm10.505 0v8.74h1.335V31h-1.45v-1.838h-8.42V19.129h1.442v8.74h5.65v-8.74h1.443zm5.693 8.015l-.83 2.018h-3.088l4.423-9.954h3.334l4.408 9.954h-3.088l-.815-2.018h-4.344zm3.651-1.731l-1.465-3.634-1.479 3.634h2.944zm11.054-6.205c.645 0 1.193.063 1.645.187.457.12.83.285 1.118.495.289.211.501.458.635.74.135.283.202.587.202.912 0 .302-.045.577-.137.826-.091.244-.206.46-.346.647a2.418 2.418 0 01-.455.46 1.9 1.9 0 01-.461.257c.312.125.596.266.851.424.26.158.481.34.664.546.183.206.325.443.426.711.106.268.159.577.159.926 0 .417-.075.8-.224 1.15a2.376 2.376 0 01-.65.89 3.012 3.012 0 01-1.053.582c-.414.134-.89.2-1.429.2h-5.779v-9.953h4.834zm-1.818 1.674v2.384h.649c.313 0 .589-.015.83-.043a1.87 1.87 0 00.613-.166.847.847 0 00.375-.359c.087-.157.13-.366.13-.625 0-.258-.045-.464-.137-.617a.877.877 0 00-.39-.359 1.82 1.82 0 00-.62-.173 6.919 6.919 0 00-.815-.042h-.635zm0 4.057v2.55h1.226c.63 0 1.097-.104 1.4-.31.308-.205.462-.526.462-.962 0-.852-.621-1.278-1.862-1.278h-1.226zm17.937-5.73v2.204h-3.665v7.749h-3.009v-7.75h-3.666v-2.204h10.34zm12.764 4.969c0 .684-.117 1.335-.353 1.953a4.543 4.543 0 01-1.068 1.63c-.472.47-1.063.843-1.775 1.12-.707.273-1.535.41-2.482.41a7.31 7.31 0 01-1.776-.201 5.932 5.932 0 01-1.435-.553 4.643 4.643 0 01-1.09-.833 5.082 5.082 0 01-.772-1.056 5.042 5.042 0 01-.454-1.192 5.677 5.677 0 01-.145-1.278c0-.647.111-1.274.332-1.882a4.655 4.655 0 011.032-1.637c.466-.479 1.056-.862 1.768-1.15.716-.291 1.563-.437 2.54-.437.952 0 1.784.141 2.496.424.712.277 1.304.65 1.775 1.12.472.47.823 1.012 1.054 1.63a5.33 5.33 0 01.353 1.932zm-8.276 0c0 .373.058.718.173 1.034.121.311.291.582.512.811.222.225.494.4.816.525.322.124.688.186 1.097.186a3.08 3.08 0 001.111-.186c.327-.13.599-.307.815-.532.222-.23.39-.5.505-.811a2.92 2.92 0 00.173-1.027c0-.369-.057-.709-.173-1.02a2.232 2.232 0 00-.505-.804 2.145 2.145 0 00-.815-.532 2.967 2.967 0 00-1.111-.194c-.409 0-.775.063-1.097.187-.322.125-.594.3-.816.524a2.332 2.332 0 00-.512.812 2.94 2.94 0 00-.173 1.027zm10.455 4.984v-9.954h3.016v7.54h2.302v-7.54h2.93v7.54h2.301v-7.54h3.016v9.954h-13.565zm24.944-7.605a3.09 3.09 0 00-.512.036c-.14.018-.267.062-.383.129-.11.067-.221.167-.332.301-.105.13-.228.307-.368.532a8.59 8.59 0 01-.411.61 2.764 2.764 0 01-.389.417c-.13.11-.272.198-.426.265a2.639 2.639 0 01-.52.165c.202.02.397.068.585.144.187.072.375.19.562.352.193.158.392.369.599.632.207.263.429.593.664.99l1.775 3.032h-3.384l-1.58-2.794a9.216 9.216 0 00-.31-.517 1.451 1.451 0 00-.282-.337.852.852 0 00-.353-.18 1.77 1.77 0 00-.491-.058v3.886h-3.016v-9.954h3.016v3.655c.149 0 .279-.019.39-.057.11-.043.221-.12.332-.23.115-.115.24-.273.375-.474.139-.2.31-.462.512-.782.207-.326.395-.604.563-.833.168-.23.334-.424.498-.582.168-.158.339-.283.512-.374a2.5 2.5 0 01.599-.208c.226-.048.481-.079.765-.093.288-.015.625-.022 1.01-.022v2.349zm13.175 2.62c0 .685-.118 1.337-.353 1.954a4.543 4.543 0 01-1.068 1.63c-.471.47-1.063.843-1.775 1.12-.707.273-1.535.41-2.482.41a7.29 7.29 0 01-1.775-.201 5.923 5.923 0 01-1.436-.553 4.643 4.643 0 01-1.09-.833 5.082 5.082 0 01-.772-1.056 5.042 5.042 0 01-.454-1.192 5.677 5.677 0 01-.145-1.278c0-.647.111-1.274.332-1.882a4.655 4.655 0 011.032-1.637c.467-.479 1.056-.862 1.768-1.15.717-.291 1.563-.437 2.54-.437.952 0 1.784.141 2.496.424.712.277 1.304.65 1.775 1.12.472.47.823 1.012 1.054 1.63.235.613.353 1.257.353 1.932zm-8.276 0c0 .374.058.719.173 1.035.12.311.291.582.513.811.221.225.493.4.815.525.322.124.688.186 1.097.186a3.08 3.08 0 001.111-.186c.327-.13.599-.307.815-.532.221-.23.39-.5.505-.811a2.92 2.92 0 00.174-1.027c0-.369-.058-.709-.174-1.02a2.245 2.245 0 00-.505-.804 2.145 2.145 0 00-.815-.532 2.967 2.967 0 00-1.111-.194c-.409 0-.775.063-1.097.187-.322.125-.594.3-.815.524a2.306 2.306 0 00-.513.812 2.94 2.94 0 00-.173 1.027zm17.108 4.985l-2.295-5.752-2.345 5.752h-3.153l4.51-10.09h1.999L204 29.162h-3.131zm7.533-2.018l-.83 2.018h-3.088l4.423-9.954h3.333l4.409 9.954h-3.088l-.815-2.018h-4.344zm3.651-1.731l-1.465-3.634-1.479 3.634h2.944zM226 25.075h-3.16v3.146h-1.79v-3.146h-3.16v-1.78h3.16v-3.146h1.79v3.146H226v1.78z" fill="#00418D"/></svg><svg fill="none" viewBox="0 0 226 48" id="include--Logo" xmlns="http://www.w3.org/2000/svg"><path d="M55.302 40.695L32.113 2.34c-1.878-3.127-6.404-3.114-8.272-.003L.697 40.696l-.001.003C-1.234 43.913 1.079 48 4.833 48h46.334c3.748 0 6.072-4.08 4.135-7.305zm-4.135 4.027H4.833c-1.2 0-1.94-1.305-1.326-2.334l23.145-38.36a1.544 1.544 0 012.65.004l23.189 38.353a1.542 1.542 0 01-1.324 2.337z" fill="#FF2B2B"/><path d="M31.972 24.621c-.944 0-1.712.768-1.712 1.71a1.713 1.713 0 003.424 0c0-.942-.768-1.71-1.712-1.71zm1.131-5.189v3.085c.88.261 1.632.818 2.142 1.556l2.937-.954a7.014 7.014 0 00-5.079-3.687zm5.782 5.848l-2.937.953.002.1c0 .908-.306 1.745-.821 2.416l1.813 2.494a6.963 6.963 0 001.943-5.964z" fill="#00418D"/><path d="M31.97 11.414H18.176a1.133 1.133 0 100 2.266h5.894a15.041 15.041 0 00-3.327 2.832h-7.708a1.134 1.134 0 100 2.266h6.067a14.816 14.816 0 00-2.06 7.553c0 3.206 1.017 6.178 2.745 8.612H16.57a1.133 1.133 0 100 2.266h5.197a15.023 15.023 0 002.303 1.774H13.151a1.134 1.134 0 100 2.266h18.82c8.232 0 14.93-6.692 14.93-14.918 0-8.225-6.698-14.917-14.93-14.917zm5.51 22.353c-.022.018-.042.035-.065.052a1.278 1.278 0 01-.077.051 9.218 9.218 0 01-5.367 1.716 9.217 9.217 0 01-5.367-1.716 1.387 1.387 0 01-.078-.051l-.064-.052a9.244 9.244 0 01-3.754-7.436c0-5.102 4.156-9.254 9.263-9.254s9.262 4.151 9.262 9.254a9.244 9.244 0 01-3.754 7.436z" fill="#00418D"/><path d="M25.758 23.12l2.936.953a3.998 3.998 0 012.142-1.557v-3.084a7.014 7.014 0 00-5.078 3.688zm7.536 6.96a3.967 3.967 0 01-2.65 0l-1.814 2.495c.945.475 2.01.744 3.139.744a6.956 6.956 0 003.139-.745l-1.814-2.494zm-5.303-3.747l.002-.1-2.937-.954a6.962 6.962 0 001.943 5.963l1.814-2.493a3.953 3.953 0 01-.822-2.416z" fill="#00418D"/><path d="M39.898 26.33c0 4.377-3.552 7.926-7.933 7.926-4.382 0-7.934-3.549-7.934-7.927s3.552-7.927 7.934-7.927c4.381 0 7.933 3.55 7.933 7.927z" fill="#fff"/><path fill-rule="evenodd" clip-rule="evenodd" d="M31.965 32.39a6.064 6.064 0 006.066-6.06 6.064 6.064 0 00-6.066-6.063 6.064 6.064 0 00-6.067 6.062 6.064 6.064 0 006.067 6.062zm0 1.866c4.381 0 7.933-3.549 7.933-7.927s-3.552-7.927-7.933-7.927c-4.382 0-7.934 3.55-7.934 7.927 0 4.378 3.552 7.927 7.934 7.927z" fill="#FF2A2A"/><path d="M30.098 24.27h1.186l.98 2.13.779-2.13h1.192l-1.613 3.814a2.28 2.28 0 01-.216.401c-.077.111-.161.2-.252.268a.86.86 0 01-.298.147 1.25 1.25 0 01-.353.047c-.09 0-.177-.007-.262-.022a2.214 2.214 0 01-.454-.123 1.924 1.924 0 01-.164-.068v-.8c.11.056.221.1.336.13.115.031.227.047.336.047a.45.45 0 00.282-.082c.071-.055.121-.152.15-.292l-1.63-3.467z" fill="#56567B"/><path d="M73.092 28.415c-.246.129-.5.249-.765.359a7.508 7.508 0 01-1.797.452c-.337.043-.7.065-1.09.065-.63 0-1.202-.074-1.717-.223a5.374 5.374 0 01-1.378-.603 4.934 4.934 0 01-1.046-.883 5.383 5.383 0 01-.729-1.056 5.28 5.28 0 01-.433-1.135A4.734 4.734 0 0164 24.293c0-.508.063-.991.188-1.451a5.054 5.054 0 011.37-2.341 5.14 5.14 0 011.112-.805 5.51 5.51 0 011.335-.516c.48-.12.988-.18 1.522-.18.26 0 .522.017.787.05.264.03.536.08.815.151.284.067.577.153.88.259.308.1.633.222.974.366v1.544a9.195 9.195 0 00-.909-.467 6.54 6.54 0 00-.858-.33 5.231 5.231 0 00-.845-.187 5.642 5.642 0 00-.858-.065c-.578 0-1.112.099-1.602.295-.49.191-.917.457-1.277.797a3.65 3.65 0 00-.837 1.214 3.843 3.843 0 00-.303 1.537c0 .56.098 1.074.296 1.543a3.5 3.5 0 00.83 1.2c.36.335.79.596 1.29.782.501.187 1.054.28 1.66.28a5.72 5.72 0 001.761-.287 7.409 7.409 0 001.76-.847v1.58zm10.606-9.286v10.033h-1.443v-8.74h-5.65v8.74h-1.443V19.129h8.536zm8.255 0v1.293H87.68v3.03h4.127v1.3H87.68v3.117h4.409v1.293h-5.852V19.129h5.715zm10.505 0v8.74h1.335V31h-1.45v-1.838h-8.42V19.129h1.442v8.74h5.65v-8.74h1.443zm5.693 8.015l-.83 2.018h-3.088l4.423-9.954h3.334l4.408 9.954h-3.088l-.815-2.018h-4.344zm3.651-1.731l-1.465-3.634-1.479 3.634h2.944zm11.054-6.205c.645 0 1.193.063 1.645.187.457.12.83.285 1.118.495.289.211.501.458.635.74.135.283.202.587.202.912 0 .302-.045.577-.137.826-.091.244-.206.46-.346.647a2.418 2.418 0 01-.455.46 1.9 1.9 0 01-.461.257c.312.125.596.266.851.424.26.158.481.34.664.546.183.206.325.443.426.711.106.268.159.577.159.926 0 .417-.075.8-.224 1.15a2.376 2.376 0 01-.65.89 3.012 3.012 0 01-1.053.582c-.414.134-.89.2-1.429.2h-5.779v-9.953h4.834zm-1.818 1.674v2.384h.649c.313 0 .589-.015.83-.043a1.87 1.87 0 00.613-.166.847.847 0 00.375-.359c.087-.157.13-.366.13-.625 0-.258-.045-.464-.137-.617a.877.877 0 00-.39-.359 1.82 1.82 0 00-.62-.173 6.919 6.919 0 00-.815-.042h-.635zm0 4.057v2.55h1.226c.63 0 1.097-.104 1.4-.31.308-.205.462-.526.462-.962 0-.852-.621-1.278-1.862-1.278h-1.226zm17.937-5.73v2.204h-3.665v7.749h-3.009v-7.75h-3.666v-2.204h10.34zm12.764 4.969c0 .684-.117 1.335-.353 1.953a4.543 4.543 0 01-1.068 1.63c-.472.47-1.063.843-1.775 1.12-.707.273-1.535.41-2.482.41a7.31 7.31 0 01-1.776-.201 5.932 5.932 0 01-1.435-.553 4.643 4.643 0 01-1.09-.833 5.082 5.082 0 01-.772-1.056 5.042 5.042 0 01-.454-1.192 5.677 5.677 0 01-.145-1.278c0-.647.111-1.274.332-1.882a4.655 4.655 0 011.032-1.637c.466-.479 1.056-.862 1.768-1.15.716-.291 1.563-.437 2.54-.437.952 0 1.784.141 2.496.424.712.277 1.304.65 1.775 1.12.472.47.823 1.012 1.054 1.63a5.33 5.33 0 01.353 1.932zm-8.276 0c0 .373.058.718.173 1.034.121.311.291.582.512.811.222.225.494.4.816.525.322.124.688.186 1.097.186a3.08 3.08 0 001.111-.186c.327-.13.599-.307.815-.532.222-.23.39-.5.505-.811a2.92 2.92 0 00.173-1.027c0-.369-.057-.709-.173-1.02a2.232 2.232 0 00-.505-.804 2.145 2.145 0 00-.815-.532 2.967 2.967 0 00-1.111-.194c-.409 0-.775.063-1.097.187-.322.125-.594.3-.816.524a2.332 2.332 0 00-.512.812 2.94 2.94 0 00-.173 1.027zm10.455 4.984v-9.954h3.016v7.54h2.302v-7.54h2.93v7.54h2.301v-7.54h3.016v9.954h-13.565zm24.944-7.605a3.09 3.09 0 00-.512.036c-.14.018-.267.062-.383.129-.11.067-.221.167-.332.301-.105.13-.228.307-.368.532a8.59 8.59 0 01-.411.61 2.764 2.764 0 01-.389.417c-.13.11-.272.198-.426.265a2.639 2.639 0 01-.52.165c.202.02.397.068.585.144.187.072.375.19.562.352.193.158.392.369.599.632.207.263.429.593.664.99l1.775 3.032h-3.384l-1.58-2.794a9.216 9.216 0 00-.31-.517 1.451 1.451 0 00-.282-.337.852.852 0 00-.353-.18 1.77 1.77 0 00-.491-.058v3.886h-3.016v-9.954h3.016v3.655c.149 0 .279-.019.39-.057.11-.043.221-.12.332-.23.115-.115.24-.273.375-.474.139-.2.31-.462.512-.782.207-.326.395-.604.563-.833.168-.23.334-.424.498-.582.168-.158.339-.283.512-.374a2.5 2.5 0 01.599-.208c.226-.048.481-.079.765-.093.288-.015.625-.022 1.01-.022v2.349zm13.175 2.62c0 .685-.118 1.337-.353 1.954a4.543 4.543 0 01-1.068 1.63c-.471.47-1.063.843-1.775 1.12-.707.273-1.535.41-2.482.41a7.29 7.29 0 01-1.775-.201 5.923 5.923 0 01-1.436-.553 4.643 4.643 0 01-1.09-.833 5.082 5.082 0 01-.772-1.056 5.042 5.042 0 01-.454-1.192 5.677 5.677 0 01-.145-1.278c0-.647.111-1.274.332-1.882a4.655 4.655 0 011.032-1.637c.467-.479 1.056-.862 1.768-1.15.717-.291 1.563-.437 2.54-.437.952 0 1.784.141 2.496.424.712.277 1.304.65 1.775 1.12.472.47.823 1.012 1.054 1.63.235.613.353 1.257.353 1.932zm-8.276 0c0 .374.058.719.173 1.035.12.311.291.582.513.811.221.225.493.4.815.525.322.124.688.186 1.097.186a3.08 3.08 0 001.111-.186c.327-.13.599-.307.815-.532.221-.23.39-.5.505-.811a2.92 2.92 0 00.174-1.027c0-.369-.058-.709-.174-1.02a2.245 2.245 0 00-.505-.804 2.145 2.145 0 00-.815-.532 2.967 2.967 0 00-1.111-.194c-.409 0-.775.063-1.097.187-.322.125-.594.3-.815.524a2.306 2.306 0 00-.513.812 2.94 2.94 0 00-.173 1.027zm17.108 4.985l-2.295-5.752-2.345 5.752h-3.153l4.51-10.09h1.999L204 29.162h-3.131zm7.533-2.018l-.83 2.018h-3.088l4.423-9.954h3.333l4.409 9.954h-3.088l-.815-2.018h-4.344zm3.651-1.731l-1.465-3.634-1.479 3.634h2.944zM226 25.075h-3.16v3.146h-1.79v-3.146h-3.16v-1.78h3.16v-3.146h1.79v3.146H226v1.78z" fill="#00418D"/></svg><svg fill="none" viewBox="0 0 14 14" id="sprite--clock_icon" xmlns="http://www.w3.org/2000/svg"><path d="M14 7A7 7 0 110 7a.583.583 0 011.167 0A5.833 5.833 0 107 1.167.583.583 0 017 0a7.007 7.007 0 017 7zm-8.005-.583H4.667a.583.583 0 100 1.166h1.328a1.163 1.163 0 101.588-1.588V4.083a.583.583 0 00-1.166 0v1.912a1.17 1.17 0 00-.422.422zm-4.93-1.293a.583.583 0 100-1.167.583.583 0 000 1.167zm1.397-2.087a.583.583 0 100-1.166.583.583 0 000 1.166zm2.076-1.38a.583.583 0 100-1.166.583.583 0 000 1.166z" fill="#668DBB"/></svg><svg fill="none" viewBox="0 0 13 16" id="sprite--location_icon" xmlns="http://www.w3.org/2000/svg"><path d="M4.38 14.245h.001c.246.344.566.623.934.814h0a2.566 2.566 0 002.37 0h0c.368-.191.688-.47.934-.814h0c1.266-1.77 2.207-3.301 2.828-4.588.628-1.298.903-2.291.903-3.003l-7.97 7.59zm0 0c-1.265-1.77-2.206-3.301-2.827-4.588C.925 8.36.65 7.365.65 6.654a6.092 6.092 0 011.721-4.249A5.782 5.782 0 016.5.65M4.38 14.245L6.5.65M3.49 7.903h0a3.375 3.375 0 01-.183-1.909m.184 1.909l5.316 1.075a3.349 3.349 0 00.948-2.34c0-.652-.189-1.291-.545-1.836a3.269 3.269 0 00-1.46-1.225h0a3.199 3.199 0 00-1.888-.19M3.491 7.902a3.31 3.31 0 001.195 1.49h0M3.49 7.902l1.195 1.49M3.307 5.993l.638.124m-.638-.124l.638.124m-.638-.124c.124-.64.432-1.23.886-1.695h0a3.237 3.237 0 011.67-.913M3.944 6.118c.1-.517.349-.992.713-1.365L6.5 9.305a2.563 2.563 0 01-1.447-.45 2.654 2.654 0 01-.96-1.196 2.725 2.725 0 01-.148-1.54zm1.917-2.732l.13.637-.13-.637zM4.686 9.392a3.213 3.213 0 001.814.563m-1.814-.563l1.814.563M6.5.65a5.782 5.782 0 014.129 1.755 6.092 6.092 0 011.721 4.249L6.5.65zm0 9.305c.868 0 1.698-.353 2.307-.976L6.5 9.955z" stroke="#668DBB" stroke-width="1.3"/></svg><svg fill="none" viewBox="0 0 16 14" id="sprite--mail_icon" xmlns="http://www.w3.org/2000/svg"><path d="M12.667 0H3.333A3.42 3.42 0 00.977.933 3.114 3.114 0 000 3.182v7.636c.001.844.353 1.652.977 2.249A3.42 3.42 0 003.333 14h9.334a3.42 3.42 0 002.356-.933A3.114 3.114 0 0016 10.818V3.182a3.114 3.114 0 00-.977-2.249A3.42 3.42 0 0012.667 0zM3.333 1.273h9.334c.399 0 .789.115 1.119.33.33.213.586.517.734.87L9.415 7.348A2.054 2.054 0 018 7.905c-.53 0-1.039-.2-1.415-.558L1.48 2.474a1.93 1.93 0 01.734-.872 2.07 2.07 0 011.12-.33zm9.334 11.454H3.333a2.05 2.05 0 01-1.414-.559 1.866 1.866 0 01-.586-1.35V4.136l4.31 4.111A3.42 3.42 0 008 9.177a3.42 3.42 0 002.357-.93l4.31-4.11v6.681c0 .507-.211.992-.586 1.35a2.05 2.05 0 01-1.414.56z" fill="#668DBB"/></svg><svg fill="none" viewBox="0 0 16 16" id="sprite--phone_icon" xmlns="http://www.w3.org/2000/svg"><path d="M11.822 15.997C6.4 16.181-3.368 6.505 1.168 1.26l.766-.666a2.055 2.055 0 012.885.03c.02.02.04.043.058.066l1.2 1.558a2.068 2.068 0 01-.007 2.85l-.772.97a8.515 8.515 0 004.622 4.625l.976-.776a2.116 2.116 0 012.855-.004l1.561 1.198a.732.732 0 01.067.057 2.07 2.07 0 010 2.915l-.608.7a4.102 4.102 0 01-2.949 1.215zM3.36 1.347a.73.73 0 00-.516.214l-.767.666C-1.69 6.747 9.832 17.61 13.795 13.872l.608-.7a.734.734 0 00.057-1.038l-1.552-1.19a.54.54 0 01-.067-.058.749.749 0 00-1.032 0 .671.671 0 01-.056.05l-1.306 1.04a.668.668 0 01-.653.1A10.012 10.012 0 013.912 6.21a.665.665 0 01.098-.666l1.036-1.302a.566.566 0 01.05-.056.732.732 0 000-1.032.576.576 0 01-.057-.066L3.849 1.54a.73.73 0 00-.49-.188v-.003zM15.024 8.39C18.352 3.5 12.492-2.348 7.598.974a.666.666 0 10.763 1.092c3.65-2.503 8.075 1.92 5.57 5.563a.667.667 0 101.094.761zm-2.572-1.242a.665.665 0 000-.941L11.314 5.07V3.346a.665.665 0 00-1.138-.471.666.666 0 00-.195.47v1.998c0 .177.07.346.195.471l1.334 1.332a.667.667 0 00.943 0l-.001.002z" fill="#668DBB"/></svg></svg>