<svg width="24" height="24" viewBox="0 0 24 24" fill="none" xmlns="http://www.w3.org/2000/svg">
<path d="M23.8353 8.79346C23.6307 8.14236 23.222 7.57437 22.6697 7.17349C22.1174 6.77261 21.4507 6.56013 20.7683 6.56746H16.3992L15.0722 2.43146C14.8636 1.78042 14.4535 1.21248 13.9012 0.809531C13.3489 0.406583 12.6829 0.189453 11.9992 0.189453C11.3156 0.189453 10.6496 0.406583 10.0973 0.809531C9.54497 1.21248 9.13491 1.78042 8.92623 2.43146L7.59923 6.56746H3.23022C2.54996 6.56843 1.88741 6.78434 1.3372 7.18436C0.786986 7.58438 0.377258 8.14805 0.166538 8.79485C-0.0441817 9.44164 -0.0451143 10.1385 0.163873 10.7858C0.372861 11.4332 0.781079 11.998 1.33022 12.3995L4.88622 14.9995L3.53422 19.1864C3.31573 19.8358 3.31297 20.5384 3.52633 21.1895C3.7397 21.8406 4.15777 22.4053 4.71822 22.7994C5.26908 23.2062 5.93662 23.4241 6.62138 23.4207C7.30614 23.4173 7.97147 23.1927 8.51823 22.7804L11.9992 20.2184L15.4812 22.7774C16.0311 23.1819 16.695 23.4016 17.3776 23.4049C18.0602 23.4082 18.7262 23.195 19.28 22.796C19.8338 22.3969 20.2468 21.8325 20.4595 21.1839C20.6723 20.5354 20.674 19.836 20.4643 19.1864L19.1123 14.9995L22.6723 12.3995C23.2277 12.003 23.6407 11.4383 23.8501 10.7888C24.0596 10.1393 24.0544 9.43971 23.8353 8.79346Z" fill="#FFBB00"/>
</svg>
