<svg width="24" height="24" viewBox="0 0 24 24" fill="none" xmlns="http://www.w3.org/2000/svg">
<path d="M23.8317 8.8887C23.6271 8.21606 23.2184 7.62927 22.666 7.21513C22.1135 6.80099 21.4467 6.58147 20.7642 6.58905H16.3944L15.0671 2.3162C14.8584 1.64361 14.4483 1.05688 13.8959 0.640595C13.3435 0.224314 12.6774 0 11.9936 0C11.3098 0 10.6437 0.224314 10.0913 0.640595C9.53886 1.05688 9.12874 1.64361 8.92002 2.3162L7.59278 6.58905H3.22299C2.54261 6.59005 1.87994 6.81311 1.32962 7.22636C0.779313 7.63962 0.369512 8.22194 0.158754 8.89013C-0.0520035 9.55833 -0.0529364 10.2782 0.156089 10.947C0.365114 11.6158 0.773405 12.1992 1.32264 12.614L4.87929 15.3L3.52704 19.6256C3.30851 20.2965 3.30575 21.0223 3.51915 21.695C3.73255 22.3676 4.1507 22.951 4.71126 23.3581C5.26221 23.7784 5.92987 24.0035 6.61476 24C7.29964 23.9964 7.96509 23.7644 8.51195 23.3385L11.9936 20.6917L15.4762 23.3354C16.0262 23.7532 16.6902 23.9802 17.3729 23.9836C18.0556 23.9871 18.7218 23.7668 19.2757 23.3545C19.8295 22.9422 20.2426 22.3592 20.4554 21.6891C20.6682 21.0191 20.6699 20.2966 20.4601 19.6256L19.1079 15.3L22.6685 12.614C23.224 12.2044 23.6371 11.621 23.8466 10.9501C24.0561 10.2791 24.0509 9.55634 23.8317 8.8887ZM21.4883 10.9456L17.3435 14.0748C17.1733 14.2031 17.0466 14.3836 16.9816 14.5907C16.9166 14.7977 16.9165 15.0207 16.9815 15.2277L18.5568 20.2589C18.6365 20.514 18.6358 20.7888 18.5548 21.0435C18.4738 21.2983 18.3167 21.5199 18.1061 21.6766C17.8955 21.8334 17.6422 21.9171 17.3826 21.9157C17.123 21.9143 16.8705 21.828 16.6614 21.669L12.5857 18.5698C12.414 18.4395 12.2066 18.3693 11.9936 18.3693C11.7806 18.3693 11.5731 18.4395 11.4015 18.5698L7.32573 21.669C7.11678 21.8301 6.86358 21.9183 6.60286 21.9207C6.34214 21.9231 6.08745 21.8397 5.8757 21.6826C5.66395 21.5255 5.50615 21.3028 5.42518 21.0468C5.34422 20.7908 5.34429 20.5148 5.42539 20.2589L7.00567 15.2277C7.0706 15.0207 7.07055 14.7977 7.00553 14.5907C6.94052 14.3836 6.81385 14.2031 6.64361 14.0748L2.49886 10.9456C2.29012 10.7877 2.13502 10.5658 2.05572 10.3114C1.97641 10.0571 1.97695 9.78333 2.05726 9.52932C2.13757 9.2753 2.29354 9.054 2.5029 8.89702C2.71225 8.74004 2.96428 8.65541 3.22299 8.65522H8.32391C8.53567 8.65522 8.74195 8.58579 8.91307 8.45695C9.08418 8.3281 9.21129 8.14649 9.27608 7.93826L10.8264 2.94741C10.9059 2.69202 11.0619 2.46929 11.2718 2.31129C11.4818 2.15329 11.7348 2.06816 11.9946 2.06816C12.2543 2.06816 12.5074 2.15329 12.7173 2.31129C12.9272 2.46929 13.0832 2.69202 13.1628 2.94741L14.7131 7.93826C14.7779 8.14649 14.905 8.3281 15.0761 8.45695C15.2472 8.58579 15.4535 8.65522 15.6652 8.65522H20.7662C21.0249 8.65541 21.2769 8.74004 21.4863 8.89702C21.6956 9.054 21.8516 9.2753 21.9319 9.52932C22.0122 9.78333 22.0127 10.0571 21.9334 10.3114C21.8541 10.5658 21.699 10.7877 21.4903 10.9456H21.4883Z" fill="#FFBB00"/>
</svg>
