<svg width="120" height="120" viewBox="0 0 120 120" fill="none" xmlns="http://www.w3.org/2000/svg">
<g filter="url(#filter0_ii_834_4)">
<rect width="120" height="120" rx="60" fill="#F3F6FB"/>
</g>
<path d="M61.1605 62.3203C57.2954 62.3203 54.1621 65.4536 54.1621 69.3187C54.1621 73.1838 57.2954 76.3171 61.1605 76.3171C65.0256 76.3171 68.1589 73.1838 68.1589 69.3187C68.155 65.4552 65.024 62.3242 61.1605 62.3203ZM61.1605 73.9843C58.5838 73.9843 56.4949 71.8954 56.4949 69.3187C56.4949 66.742 58.5838 64.6531 61.1605 64.6531C63.7372 64.6531 65.8261 66.742 65.8261 69.3187C65.8261 71.8954 63.7372 73.9843 61.1605 73.9843Z" fill="#668DBB"/>
<path d="M76.3231 39.1265L86.7425 36.0041C87.4844 35.7844 87.9939 35.1034 87.9953 34.3296C87.9966 33.5558 87.4895 32.873 86.7483 32.6507L61.7933 25.0808C61.3629 24.9692 60.9106 24.9733 60.4823 25.0925L35.5773 32.6495C34.8349 32.8685 34.3272 33.5528 34.3328 34.3268V41.8478C32.9284 42.7679 32.0585 44.3129 32 45.9908V48.3236C32 48.9678 32.5222 49.49 33.1664 49.49H37.832C38.4762 49.49 38.9984 48.9678 38.9984 48.3236V45.9908C38.9399 44.3129 38.07 42.7679 36.6656 41.8478V36.3307L45.9968 39.13V47.1572C45.9982 47.6015 46.0849 48.0414 46.2522 48.4531C37.1714 54.9346 33.319 66.541 36.722 77.1661C40.1249 87.7912 50.0032 95 61.1599 95C72.3166 95 82.195 87.7912 85.5979 77.1661C89.0008 66.541 85.1485 54.9346 76.0676 48.4531C76.2349 48.0414 76.3216 47.6015 76.3231 47.1572V39.1265ZM63.642 87.7968C61.9964 88.0425 60.3234 88.0425 58.6778 87.7968C56.1941 79.0926 50.4507 71.6807 42.6422 67.1026C43.0682 63.5166 44.5302 60.1325 46.8494 57.3643C51.5572 58.338 56.3525 58.8261 61.1599 58.8212C65.9675 58.825 70.7628 58.3357 75.4705 57.3608C77.7902 60.1299 79.2523 63.5153 79.6776 67.1026C71.8691 71.6807 66.1258 79.0926 63.642 87.7968ZM79.8001 69.7503C79.6015 77.9279 74.1044 85.0247 66.2361 87.2614C68.597 80.0318 73.3903 73.8437 79.8001 69.7503ZM56.0838 87.2614C48.2155 85.0247 42.7184 77.9279 42.5197 69.7503C48.9296 73.8437 53.7229 80.0318 56.0838 87.2614ZM48.8159 55.3593C55.8498 49.0862 66.4701 49.0862 73.5039 55.3593C65.3399 56.8255 56.98 56.8255 48.8159 55.3593ZM48.3296 47.1572V38.3847C49.4143 37.6149 53.1351 35.4932 61.1599 35.4932C69.1847 35.4932 72.9172 37.6231 73.9903 38.3847V47.1572C73.9903 47.8014 73.4681 48.3236 72.8239 48.3236H49.496C48.8518 48.3236 48.3296 47.8014 48.3296 47.1572ZM36.6656 47.1572H34.3328V45.9908C34.3846 45.1507 34.8133 44.3791 35.4992 43.8913C36.185 44.3792 36.6137 45.1508 36.6656 45.9908V47.1572ZM61.1599 27.3284L84.2254 34.3268L75.8075 36.8486C74.9712 36.1289 70.918 33.1604 61.1599 33.1604C51.4018 33.1604 47.3486 36.1289 46.5123 36.8451L38.0944 34.3268L61.1599 27.3284ZM84.4879 69.3187C84.4986 80.3924 76.7227 89.9477 65.8778 92.1872C55.033 94.4268 44.1081 88.7334 39.7314 78.5614C35.3546 68.3893 38.7323 56.542 47.8152 50.2073C48.3279 50.498 48.9066 50.6526 49.496 50.6564H51.585C49.2795 51.8471 47.2135 53.4529 45.4905 55.3931C45.4812 55.4048 45.4696 55.4141 45.4602 55.427C42.4588 58.8011 40.6323 63.0574 40.2546 67.5575C40.2488 67.5983 40.2546 67.6368 40.2476 67.6741C40.2056 68.2188 40.1648 68.7635 40.1648 69.3187C40.1648 80.914 49.5646 90.3139 61.1599 90.3139C72.7552 90.3139 82.1551 80.914 82.1551 69.3187C82.1551 68.7635 82.1143 68.2188 82.0723 67.6741C82.0723 67.6345 82.0723 67.596 82.0653 67.5575C81.6882 63.0573 79.8616 58.8008 76.8596 55.427C76.8503 55.4141 76.8375 55.4048 76.8281 55.392C75.1055 53.4522 73.0399 51.8468 70.7349 50.6564H72.8239C73.4133 50.6526 73.9919 50.498 74.5047 50.2073C80.7664 54.554 84.4972 61.6962 84.4879 69.3187Z" fill="#668DBB"/>
<defs>
<filter id="filter0_ii_834_4" x="-4" y="-4" width="128" height="128" filterUnits="userSpaceOnUse" color-interpolation-filters="sRGB">
<feFlood flood-opacity="0" result="BackgroundImageFix"/>
<feBlend mode="normal" in="SourceGraphic" in2="BackgroundImageFix" result="shape"/>
<feColorMatrix in="SourceAlpha" type="matrix" values="0 0 0 0 0 0 0 0 0 0 0 0 0 0 0 0 0 0 127 0" result="hardAlpha"/>
<feOffset dx="4" dy="4"/>
<feGaussianBlur stdDeviation="2"/>
<feComposite in2="hardAlpha" operator="arithmetic" k2="-1" k3="1"/>
<feColorMatrix type="matrix" values="0 0 0 0 0.74902 0 0 0 0 0.811765 0 0 0 0 0.92549 0 0 0 0.64 0"/>
<feBlend mode="normal" in2="shape" result="effect1_innerShadow_834_4"/>
<feColorMatrix in="SourceAlpha" type="matrix" values="0 0 0 0 0 0 0 0 0 0 0 0 0 0 0 0 0 0 127 0" result="hardAlpha"/>
<feOffset dx="-4" dy="-4"/>
<feGaussianBlur stdDeviation="2"/>
<feComposite in2="hardAlpha" operator="arithmetic" k2="-1" k3="1"/>
<feColorMatrix type="matrix" values="0 0 0 0 0.74902 0 0 0 0 0.811765 0 0 0 0 0.92549 0 0 0 0.32 0"/>
<feBlend mode="normal" in2="effect1_innerShadow_834_4" result="effect2_innerShadow_834_4"/>
</filter>
</defs>
</svg>
