<svg width="56" height="48" viewBox="0 0 56 48" fill="none" xmlns="http://www.w3.org/2000/svg">
<path d="M55.3019 40.6947L32.1132 2.34068C30.2355 -0.786076 25.7091 -0.773394 23.8406 2.33774L0.697415 40.6961C0.696948 40.6971 0.696247 40.698 0.695781 40.6989C-1.23435 43.913 1.07915 48 4.83278 48H51.1674C54.9155 47.9998 57.2385 43.9198 55.3019 40.6947ZM51.1674 44.7218H4.83278C3.63345 44.7218 2.89238 43.4171 3.50722 42.3885L26.6523 4.0273C27.2498 3.03192 28.6969 3.02362 29.3022 4.03154L52.4909 42.3855C53.1085 43.4136 52.3689 44.7218 51.1674 44.7218Z" fill="#FF2B2B"/>
<path d="M31.9717 24.6211C31.0277 24.6211 30.2598 25.3886 30.2598 26.3319C30.2598 27.2752 31.0277 28.0425 31.9717 28.0425C32.9158 28.0425 33.6839 27.2752 33.6839 26.3319C33.6839 25.3886 32.9158 24.6211 31.9717 24.6211Z" fill="#00418D"/>
<path d="M33.1035 19.4316V22.5166C33.9827 22.7782 34.7354 23.3354 35.2455 24.073L38.1818 23.1195C37.1831 21.1968 35.3164 19.7937 33.1035 19.4316Z" fill="#00418D"/>
<path d="M38.8853 25.2793L35.9479 26.2328C35.9488 26.2662 35.9505 26.2993 35.9505 26.3329C35.9505 27.2409 35.6436 28.0784 35.1289 28.7487L36.9424 31.2428C38.1919 29.9797 38.9647 28.2449 38.9647 26.3329C38.9647 25.9748 38.9376 25.6229 38.8853 25.2793Z" fill="#00418D"/>
<path d="M31.9708 11.4141H18.175C17.5487 11.4141 17.0412 11.9214 17.0412 12.5471C17.0412 13.1728 17.5487 13.6801 18.175 13.6801H24.0694C22.8258 14.4583 21.7046 15.414 20.7416 16.512H13.0344C12.4081 16.512 11.9004 17.0194 11.9004 17.6451C11.9004 18.2708 12.4081 18.7781 13.0344 18.7781H19.1013C17.793 20.9949 17.041 23.5769 17.041 26.3315C17.041 29.5365 18.0581 32.5086 19.7864 34.943H16.5689C15.9427 34.943 15.4352 35.4501 15.4352 36.0759C15.4352 36.7016 15.9427 37.2089 16.5689 37.2089H21.7657C22.4727 37.8715 23.2441 38.4663 24.0694 38.9827H13.1513C12.525 38.9827 12.0173 39.49 12.0173 40.1158C12.0173 40.7415 12.525 41.2488 13.1513 41.2488H31.9708C40.203 41.2488 46.9004 34.5567 46.9004 26.3315C46.9004 18.1059 40.203 11.4141 31.9708 11.4141ZM37.4791 33.7668C37.4581 33.7846 37.4376 33.8023 37.4149 33.8186C37.3897 33.8368 37.3638 33.854 37.3377 33.8701C35.8224 34.95 33.9695 35.5861 31.9708 35.5861C29.9718 35.5861 28.1192 34.95 26.6039 33.8701C26.5778 33.854 26.5519 33.8368 26.5264 33.8186C26.504 33.8023 26.4835 33.7843 26.4625 33.7668C24.1863 32.0791 22.7084 29.3747 22.7084 26.3315C22.7084 21.2285 26.8636 17.0768 31.9708 17.0768C37.078 17.0768 41.233 21.2285 41.233 26.3315C41.233 29.3747 39.755 32.0791 37.4791 33.7668Z" fill="#00418D"/>
<path d="M25.7578 23.1195L28.6941 24.0728C29.2044 23.3354 29.9569 22.7782 30.8361 22.5163V19.4316C28.6234 19.7937 26.7565 21.1968 25.7578 23.1195Z" fill="#00418D"/>
<path d="M33.2937 30.0801C32.8789 30.2267 32.4334 30.3074 31.9689 30.3074C31.5045 30.3074 31.0589 30.2267 30.6442 30.0801L28.8301 32.5745C29.7746 33.0503 30.8409 33.3189 31.9689 33.3189C33.0968 33.3189 34.1631 33.0505 35.1077 32.5745L33.2937 30.0801Z" fill="#00418D"/>
<path d="M27.991 26.3329C27.991 26.2993 27.9926 26.2662 27.9933 26.2328L25.0559 25.2793C25.0039 25.6229 24.9766 25.9748 24.9766 26.3329C24.9766 28.2449 25.7494 29.9799 26.9989 31.2428L28.8126 28.7487C28.2978 28.0786 27.991 27.2409 27.991 26.3329Z" fill="#00418D"/>
<path d="M39.8979 26.3292C39.8979 30.7071 36.3461 34.256 31.9646 34.256C27.5831 34.256 24.0312 30.7071 24.0312 26.3292C24.0312 21.9512 27.5831 18.4023 31.9646 18.4023C36.3461 18.4023 39.8979 21.9512 39.8979 26.3292Z" fill="white"/>
<path fill-rule="evenodd" clip-rule="evenodd" d="M31.9646 32.3908C35.315 32.3908 38.0313 29.6768 38.0313 26.3292C38.0313 22.9815 35.315 20.2675 31.9646 20.2675C28.6142 20.2675 25.8979 22.9815 25.8979 26.3292C25.8979 29.6768 28.6142 32.3908 31.9646 32.3908ZM31.9646 34.256C36.3461 34.256 39.8979 30.7071 39.8979 26.3292C39.8979 21.9512 36.3461 18.4023 31.9646 18.4023C27.5831 18.4023 24.0312 21.9512 24.0312 26.3292C24.0312 30.7071 27.5831 34.256 31.9646 34.256Z" fill="#FF2A2A"/>
<path d="M30.0977 24.2695H31.2844L32.2632 26.4004L33.0426 24.2695H34.2349L32.6216 28.0835C32.5542 28.242 32.4821 28.3759 32.4056 28.4852C32.329 28.5962 32.245 28.6855 32.154 28.7528C32.0628 28.8221 31.9634 28.8713 31.8558 28.9004C31.7501 28.9314 31.6325 28.9468 31.5033 28.9468C31.4139 28.9468 31.3264 28.9396 31.2408 28.9249C31.1549 28.9123 31.0739 28.8951 30.9974 28.8731C30.9209 28.8512 30.8506 28.8275 30.7867 28.802C30.723 28.7785 30.6684 28.7556 30.6227 28.7337V27.9334C30.7321 27.9898 30.8441 28.0334 30.9591 28.0644C31.0739 28.0954 31.1859 28.1108 31.2954 28.1108C31.412 28.1108 31.5058 28.0835 31.577 28.0289C31.6482 27.9742 31.6983 27.8767 31.7275 27.7366L30.0977 24.2695Z" fill="#56567B"/>
</svg>
